<?xml version="1.0" encoding="UTF-8"?>
<svg version="1.1" xmlns="http://www.w3.org/2000/svg" width="307" height="290">
<path d="M0 0 C6.10186945 4.63364921 10.33316159 12.26564394 11.89453125 19.71875 C11.978019 22.48300233 12.01078811 25.22088712 11.9921875 27.984375 C11.99006508 29.17447174 11.99006508 29.17447174 11.98789978 30.38861084 C11.9823154 32.91536272 11.96976579 35.44202504 11.95703125 37.96875 C11.95201423 39.68489455 11.94745168 41.40104049 11.94335938 43.1171875 C11.93235109 47.31774269 11.91509721 51.51823117 11.89453125 55.71875 C7.85538055 54.9012284 6.76640961 53.69862737 4.39453125 50.28125 C3.71261719 49.30285156 3.03070313 48.32445312 2.328125 47.31640625 C1.51572383 46.11800231 0.70465538 44.9186944 -0.10546875 43.71875 C-0.60804199 42.98124512 -1.11061523 42.24374023 -1.62841797 41.48388672 C-3.2735177 39.06676836 -4.9102563 36.64425125 -6.54296875 34.21875 C-7.34154297 33.03454468 -7.34154297 33.03454468 -8.15625 31.82641602 C-8.65382812 31.07932373 -9.15140625 30.33223145 -9.6640625 29.5625 C-10.11064209 28.89412109 -10.55722168 28.22574219 -11.01733398 27.53710938 C-12.10546875 25.71875 -12.10546875 25.71875 -13.10546875 22.71875 C-12.10546875 21.71875 -12.10546875 21.71875 -8.5078125 21.62109375 C-7.01950008 21.6277678 -5.53120443 21.63972817 -4.04296875 21.65625 C-3.28435547 21.66076172 -2.52574219 21.66527344 -1.74414062 21.66992188 C0.13544996 21.6817432 2.01500024 21.69967922 3.89453125 21.71875 C3.01427069 19.79488155 2.11459434 17.87989042 1.20703125 15.96875 C0.45873047 14.36773438 0.45873047 14.36773438 -0.3046875 12.734375 C-3.43158802 7.49800363 -8.22382129 4.28870619 -14.10546875 2.71875 C-22.23920793 1.74951216 -28.35469527 3.3929895 -34.85546875 8.46875 C-38.22271898 11.20660767 -39.79118534 14.65602159 -41.10546875 18.71875 C-41.5130083 22.38448683 -41.5130083 22.38448683 -41.3984375 26.18359375 C-41.39419266 26.86176651 -41.38994781 27.53993927 -41.38557434 28.23866272 C-41.36894816 30.37828402 -41.33133049 32.51691947 -41.29296875 34.65625 C-41.27790097 36.11782482 -41.26421625 37.57941458 -41.25195312 39.04101562 C-41.21909852 42.60057397 -41.16743116 46.15956556 -41.10546875 49.71875 C-40.19780762 49.83412109 -39.29014648 49.94949219 -38.35498047 50.06835938 C-31.46441242 50.98989431 -24.82086682 51.97757613 -18.23046875 54.21875 C-17.48796875 54.46866699 -16.74546875 54.71858398 -15.98046875 54.97607422 C-8.01387256 57.8403356 3.71509391 62.62128253 8.33203125 70.0234375 C8.51765625 70.58289063 8.70328125 71.14234375 8.89453125 71.71875 C12.17298369 70.2900311 14.28158446 68.54554114 16.7578125 65.98046875 C17.48033203 65.24248047 18.20285156 64.50449219 18.94726562 63.74414062 C20.44225976 62.1974613 21.9370546 60.65058931 23.43164062 59.10351562 C31.7147483 50.64401524 39.24560505 45.0750619 51.5390625 44.62109375 C60.98589609 45.23104678 68.75624212 48.52825064 75.203125 55.49609375 C81.15499241 63.31736986 82.74617428 72.10019346 81.89453125 81.71875 C80.20970894 89.91518285 76.31632939 95.3428942 70.45800781 101.15673828 C68.56506599 103.04790658 66.71214942 104.97557532 64.85546875 106.90234375 C63.41159852 108.38421915 61.96627845 109.86468324 60.51953125 111.34375 C59.46620605 112.42982544 59.46620605 112.42982544 58.39160156 113.5378418 C57.72483398 114.20855713 57.05806641 114.87927246 56.37109375 115.5703125 C55.77377441 116.17697754 55.17645508 116.78364258 54.56103516 117.40869141 C52.89453125 118.71875 52.89453125 118.71875 49.89453125 118.71875 C49.44528892 110.26737875 51.15810137 102.37515719 52.89453125 94.15625 C53.18440359 92.75212007 53.4734726 91.34782404 53.76171875 89.94335938 C54.46340629 86.53319185 55.17593367 83.12539945 55.89453125 79.71875 C60.31310914 80.43864864 62.12201442 81.48707949 65.20703125 84.78125 C66.25310547 85.88146484 66.25310547 85.88146484 67.3203125 87.00390625 C67.83980469 87.56980469 68.35929688 88.13570313 68.89453125 88.71875 C71.11485338 87.86219714 71.11485338 87.86219714 72.01953125 85.40625 C73.50656821 79.13945138 74.05847119 72.01456192 71.83203125 65.84375 C68.24503324 60.05826933 63.49694795 56.27307918 56.98828125 54.1953125 C50.13052585 52.63440549 44.77064592 53.46306578 38.58203125 56.828125 C33.57029932 60.35382014 29.42210057 64.79409239 25.27099609 69.27734375 C23.91990372 70.69218046 22.47929424 72.01976131 21.0390625 73.34375 C18.44774604 75.68022644 18.44774604 75.68022644 18.89453125 79.71875 C20.15068058 81.60271575 20.15068058 81.60271575 21.89453125 83.46875 C32.8527793 96.98318168 37.69277314 113.73511659 39.89453125 130.71875 C40.5994873 130.70827637 41.30444336 130.69780273 42.03076172 130.68701172 C45.27698081 130.64500495 48.52314241 130.6192834 51.76953125 130.59375 C52.878125 130.57699219 53.98671875 130.56023437 55.12890625 130.54296875 C66.43588252 130.47645712 78.48557176 131.40616584 86.97265625 139.765625 C94.6704445 149.14528296 96.04032335 157.63585145 94.89453125 169.71875 C92.97395812 177.58395425 87.88460941 183.79608129 81.44140625 188.515625 C72.35721912 193.84433812 63.11588859 193.69285129 52.89453125 193.71875 C51.50907802 193.74276789 50.12365585 193.76868424 48.73828125 193.796875 C43.62742407 193.86129757 38.89106792 193.8803065 33.89453125 192.71875 C35.34847749 189.10353232 37.10631893 187.59513956 40.33203125 185.46875 C44.12427191 182.91870072 47.84439517 180.31037778 51.51953125 177.59375 C54.7764243 175.2271974 58.03596151 172.87684281 61.39453125 170.65625 C62.00296875 170.25277344 62.61140625 169.84929687 63.23828125 169.43359375 C64.89453125 168.71875 64.89453125 168.71875 67.89453125 169.71875 C67.89453125 174.66875 67.89453125 179.61875 67.89453125 184.71875 C73.96303613 182.9978307 77.84660853 181.77865339 81.89453125 176.71875 C82.35988281 176.16445312 82.82523437 175.61015625 83.3046875 175.0390625 C87.00065648 170.07678661 87.59049745 165.74271267 87.3203125 159.62109375 C86.69847421 155.38232448 85.26702877 152.24876362 82.89453125 148.71875 C82.29640625 147.790625 81.69828125 146.8625 81.08203125 145.90625 C76.44732727 141.27154602 70.22872581 139.84301068 63.84838867 139.60522461 C62.74342041 139.61046143 61.63845215 139.61569824 60.5 139.62109375 C58.69692383 139.62592773 58.69692383 139.62592773 56.85742188 139.63085938 C54.98860352 139.64342773 54.98860352 139.64342773 53.08203125 139.65625 C51.81681641 139.66076172 50.55160156 139.66527344 49.24804688 139.66992188 C46.13016015 139.68168749 43.01236992 139.69812728 39.89453125 139.71875 C39.74757812 140.8325 39.600625 141.94625 39.44921875 143.09375 C37.18012101 159.03020388 32.66343699 178.09791524 20.0625 189.35546875 C19.67707031 189.80535156 19.29164063 190.25523437 18.89453125 190.71875 C19.27732362 194.49838448 21.05869579 196.19000577 23.75390625 198.73046875 C24.54023438 199.48908203 25.3265625 200.24769531 26.13671875 201.02929688 C27.79061322 202.59689 29.44681532 204.16205253 31.10546875 205.72460938 C39.04769523 213.40166379 43.98918159 220.51039648 44.20703125 231.78125 C44.19681328 241.2476361 42.20609417 247.5761876 35.76953125 254.59375 C29.4823183 260.41791126 22.15330237 263.35657056 13.59375 263.8671875 C2.56364099 263.26061132 -4.66498551 258.50953848 -12.10546875 250.71875 C-12.99234375 249.831875 -13.87921875 248.945 -14.79296875 248.03125 C-15.55609375 247.268125 -16.31921875 246.505 -17.10546875 245.71875 C-18.26685764 244.73332912 -19.43394151 243.75459598 -20.60546875 242.78125 C-23.88010743 239.99493463 -26.60783583 237.2310463 -29.10546875 233.71875 C-28.77546875 232.72875 -28.44546875 231.73875 -28.10546875 230.71875 C-20.07755964 232.03083837 -12.0595717 233.40202267 -4.04296875 234.78125 C-3.01937256 234.9555957 -1.99577637 235.12994141 -0.94116211 235.30957031 C0.02684326 235.47682617 0.99484863 235.64408203 1.9921875 235.81640625 C2.86367432 235.96601807 3.73516113 236.11562988 4.63305664 236.26977539 C6.89453125 236.71875 6.89453125 236.71875 9.89453125 237.71875 C9.37676504 241.82322392 7.24825681 243.67574523 4.33203125 246.46875 C3.09259766 247.66757812 3.09259766 247.66757812 1.828125 248.890625 C1.19003906 249.49390625 0.55195313 250.0971875 -0.10546875 250.71875 C5.8300089 255.42619779 11.5350826 255.35949802 18.89453125 254.71875 C25.55653772 253.04315443 30.26887318 249.54438364 33.89453125 243.71875 C37.05793373 235.81024381 36.59068232 229.15011311 33.41455078 221.46704102 C30.47649445 216.15485018 26.01961281 212.22985652 21.64453125 208.09375 C20.70867187 207.18496094 19.7728125 206.27617187 18.80859375 205.33984375 C16.51703694 203.11843664 14.21266286 200.91235388 11.89453125 198.71875 C11.1380127 199.32759033 10.38149414 199.93643066 9.60205078 200.5637207 C-5.45446828 212.54784097 -21.83661793 219.26486505 -41.10546875 220.71875 C-41.09499512 221.45399902 -41.08452148 222.18924805 -41.07373047 222.94677734 C-41.03175077 226.32906576 -41.00601045 229.71129907 -40.98046875 233.09375 C-40.95533203 234.82818359 -40.95533203 234.82818359 -40.9296875 236.59765625 C-40.86030432 248.87847823 -42.13196307 259.27512034 -50.84375 268.57421875 C-58.19546771 275.17609385 -65.56878211 277.06882179 -75.26953125 276.92578125 C-84.46182517 276.25471847 -91.63050096 271.73811776 -97.7109375 264.91796875 C-105.37022606 254.78794194 -104.24306223 242.28471406 -104.16796875 230.21875 C-104.16294408 228.80989742 -104.15838288 227.40104311 -104.15429688 225.9921875 C-104.14256905 222.56766362 -104.12615566 219.14322953 -104.10546875 215.71875 C-102.78546875 215.71875 -101.46546875 215.71875 -100.10546875 215.71875 C-98.31640625 217.59765625 -98.31640625 217.59765625 -96.48046875 220.28125 C-95.79339844 221.27382812 -95.10632813 222.26640625 -94.3984375 223.2890625 C-93.6322807 224.43106346 -92.86807165 225.57437276 -92.10546875 226.71875 C-91.67830566 227.35522461 -91.25114258 227.99169922 -90.81103516 228.64746094 C-88.62869436 231.90072852 -86.45965972 235.16214316 -84.3046875 238.43359375 C-82.24862598 241.60199623 -82.24862598 241.60199623 -80.3125 243.97265625 C-79.10546875 245.71875 -79.10546875 245.71875 -79.10546875 248.71875 C-82.7793437 249.57173376 -86.15020805 249.82664471 -89.91796875 249.78125 C-90.89378906 249.77222656 -91.86960937 249.76320313 -92.875 249.75390625 C-93.97908203 249.73650391 -93.97908203 249.73650391 -95.10546875 249.71875 C-92.9110534 256.66773195 -90.32352009 262.35914702 -83.73828125 266.04296875 C-76.67288792 269.1032075 -71.29082564 269.67289814 -63.98046875 267.03125 C-58.69205917 264.74415329 -55.65555696 261.93316172 -52.35546875 257.21875 C-48.45995452 246.31131014 -49.99649995 233.18468971 -50.10546875 221.71875 C-50.66943359 221.61328857 -51.23339844 221.50782715 -51.81445312 221.39916992 C-54.41291022 220.90890002 -57.00913699 220.40764834 -59.60546875 219.90625 C-60.49234375 219.74060547 -61.37921875 219.57496094 -62.29296875 219.40429688 C-75.70162659 216.79158046 -89.00594447 211.21811488 -99.140625 201.90625 C-101.06280791 200.48424543 -101.06280791 200.48424543 -103.47363281 200.90332031 C-106.65401689 201.88870833 -107.92722732 203.14672469 -110.1796875 205.578125 C-110.93056641 206.36445313 -111.68144531 207.15078125 -112.45507812 207.9609375 C-113.99679898 209.61471325 -115.53592441 211.27091292 -117.07226562 212.9296875 C-124.01473472 220.18530627 -131.87135015 225.73939682 -142.23046875 225.96875 C-151.19932019 225.82147822 -158.6004031 222.88807033 -165.10546875 216.71875 C-170.98550837 210.51870823 -174.06595371 203.28539411 -174.48046875 194.71875 C-173.82302957 181.13167366 -165.55619346 172.82478458 -156.35546875 163.71875 C-155.58847656 162.94402344 -154.82148438 162.16929687 -154.03125 161.37109375 C-153.29777344 160.64019531 -152.56429687 159.90929687 -151.80859375 159.15625 C-151.14504883 158.49496094 -150.48150391 157.83367187 -149.79785156 157.15234375 C-148.10546875 155.71875 -148.10546875 155.71875 -146.10546875 155.71875 C-146.10546875 154.72875 -146.10546875 153.73875 -146.10546875 152.71875 C-144.78546875 152.38875 -143.46546875 152.05875 -142.10546875 151.71875 C-140.61143629 155.68250959 -141.51969053 159.32040867 -142.29296875 163.34375 C-142.49563354 164.44481079 -142.49563354 164.44481079 -142.70239258 165.56811523 C-144.28679016 173.99775161 -146.17990507 182.36160813 -148.10546875 190.71875 C-152.24327929 190.71875 -153.31466871 189.00365393 -156.29296875 186.21875 C-157.19402344 185.3834375 -158.09507812 184.548125 -159.0234375 183.6875 C-159.71050781 183.0378125 -160.39757812 182.388125 -161.10546875 181.71875 C-165.41873304 186.96968044 -165.71819337 192.10554979 -165.10546875 198.71875 C-163.27087892 206.74714616 -163.27087892 206.74714616 -158.35546875 212.78125 C-157.61296875 213.090625 -156.87046875 213.4 -156.10546875 213.71875 C-155.30109375 214.255 -154.49671875 214.79125 -153.66796875 215.34375 C-147.91046222 217.5659455 -141.08359149 218.10092404 -135.16186523 216.04345703 C-129.7267492 213.58422951 -125.96221561 210.0290064 -121.91796875 205.71875 C-118.14552497 201.77726775 -114.4792502 198.01350062 -110.10546875 194.71875 C-110.70284391 191.30085666 -111.8974665 189.55474345 -114.16796875 186.96875 C-121.30574999 178.06491979 -126.59778863 166.84304528 -129.10546875 155.71875 C-129.40904297 154.42324219 -129.40904297 154.42324219 -129.71875 153.1015625 C-130.71612827 148.52854922 -131.13964556 144.41022146 -131.10546875 139.71875 C-131.90654053 139.72922363 -132.7076123 139.73969727 -133.53295898 139.75048828 C-137.20292964 139.79235812 -140.87284981 139.81817426 -144.54296875 139.84375 C-145.80302734 139.86050781 -147.06308594 139.87726563 -148.36132812 139.89453125 C-159.8966502 139.95476792 -168.76186389 138.90124897 -178.10546875 131.71875 C-184.68655243 125.02705987 -187.2343033 118.05117038 -187.54296875 108.78125 C-187.38984987 102.54331983 -186.39353967 98.00825539 -183.10546875 92.71875 C-182.66976562 92.00976562 -182.2340625 91.30078125 -181.78515625 90.5703125 C-177.53232353 84.3188808 -172.37322771 80.24077267 -164.91015625 78.59375 C-157.34198245 77.17959381 -149.64599725 77.50641702 -141.98046875 77.59375 C-140.43620374 77.60380296 -138.89193237 77.61292471 -137.34765625 77.62109375 C-133.60012626 77.64291664 -129.85283929 77.67731794 -126.10546875 77.71875 C-125.77546875 78.70875 -125.44546875 79.69875 -125.10546875 80.71875 C-132.74940513 86.08503491 -140.4121219 91.4235786 -148.10546875 96.71875 C-149.01554687 97.3478125 -149.925625 97.976875 -150.86328125 98.625 C-151.66507813 99.1715625 -152.466875 99.718125 -153.29296875 100.28125 C-153.98777344 100.75691406 -154.68257812 101.23257813 -155.3984375 101.72265625 C-157.10546875 102.71875 -157.10546875 102.71875 -159.10546875 102.71875 C-160.2340905 97.35779667 -160.20235096 92.16568314 -160.10546875 86.71875 C-169.00135423 89.18252231 -169.00135423 89.18252231 -175.2578125 95.6484375 C-178.12865243 101.22665316 -180.15029919 106.3483275 -179.10546875 112.71875 C-176.58507036 119.89863028 -173.73173875 125.38306378 -166.83984375 128.94921875 C-166.2675 129.20316406 -165.69515625 129.45710937 -165.10546875 129.71875 C-164.44546875 130.04875 -163.78546875 130.37875 -163.10546875 130.71875 C-160.69986602 130.87483023 -158.31844103 130.97679458 -155.91015625 131.03515625 C-154.84899094 131.0663279 -154.84899094 131.0663279 -153.76638794 131.09812927 C-151.5045145 131.16356078 -149.24252413 131.22247974 -146.98046875 131.28125 C-145.44790453 131.32444133 -143.91535218 131.36805582 -142.3828125 131.41210938 C-138.62381802 131.51923555 -134.86470583 131.6205209 -131.10546875 131.71875 C-131.14671875 130.584375 -131.18796875 129.45 -131.23046875 128.28125 C-131.22214642 123.54584594 -130.32496201 119.2778951 -129.10546875 114.71875 C-128.88616699 113.89713379 -128.66686523 113.07551758 -128.44091797 112.22900391 C-125.22945614 100.90046861 -120.25331254 90.26343686 -112.2578125 81.515625 C-110.90072485 79.80928368 -110.90072485 79.80928368 -111.29443359 77.85058594 C-112.33766189 75.10842174 -113.77789124 73.80110029 -115.9296875 71.8125 C-116.70908691 71.07483398 -117.48848633 70.33716797 -118.29150391 69.57714844 C-119.1169873 68.79887695 -119.9424707 68.02060547 -120.79296875 67.21875 C-129.76947678 58.44724908 -136.16683804 51.69816408 -136.73046875 38.59375 C-136.30092328 29.54332687 -133.6651144 22.13262575 -127.10546875 15.71875 C-118.31770049 8.83417072 -110.22338765 6.75648006 -99.10546875 7.71875 C-89.48812682 9.91837578 -81.839801 16.82471026 -75.10546875 23.71875 C-75.10546875 24.37875 -75.10546875 25.03875 -75.10546875 25.71875 C-74.44546875 25.71875 -73.78546875 25.71875 -73.10546875 25.71875 C-71.87542071 27.14826528 -70.65175234 28.58445167 -69.48046875 30.0625 C-67.95072042 31.96973634 -67.95072042 31.96973634 -65.29296875 34.40625 C-63.10546875 36.71875 -63.10546875 36.71875 -63.10546875 39.71875 C-66.80843506 40.9530721 -69.5362534 40.29495864 -73.2578125 39.57421875 C-73.9543544 39.44437088 -74.6508963 39.31452301 -75.36854553 39.18074036 C-76.84103341 38.90434294 -78.31282124 38.62419351 -79.78393555 38.34057617 C-82.02929041 37.90887982 -84.27698812 37.491667 -86.52539062 37.07617188 C-87.95719492 36.80555202 -89.38884129 36.53409501 -90.8203125 36.26171875 C-91.49021713 36.13766159 -92.16012177 36.01360443 -92.85032654 35.88578796 C-96.21876986 35.22777311 -99.13185457 34.45817565 -102.10546875 32.71875 C-101.54637995 29.47603494 -100.69225095 27.78817576 -98.10546875 25.71875 C-97.44546875 25.71875 -96.78546875 25.71875 -96.10546875 25.71875 C-94.89918867 23.38660852 -93.93999495 21.22232861 -93.10546875 18.71875 C-101.33077535 15.93836467 -107.32400197 14.18881265 -115.48046875 18.09375 C-118.95508485 19.74095458 -118.95508485 19.74095458 -121.10546875 22.71875 C-121.76546875 22.71875 -122.42546875 22.71875 -123.10546875 22.71875 C-123.79966438 24.37413958 -124.45650639 26.04511023 -125.10546875 27.71875 C-125.53666016 28.68361328 -125.53666016 28.68361328 -125.9765625 29.66796875 C-128.56312316 36.07114337 -128.17585347 41.17103083 -126.10546875 47.71875 C-124.15002924 51.42011764 -121.80742297 54.06553087 -118.85546875 56.96875 C-117.94796875 57.87625 -117.04046875 58.78375 -116.10546875 59.71875 C-116.10546875 60.37875 -116.10546875 61.03875 -116.10546875 61.71875 C-115.51765625 61.97269531 -114.92984375 62.22664063 -114.32421875 62.48828125 C-111.19990367 64.22095599 -109.22990783 66.69807932 -106.88671875 69.35546875 C-105.22509211 70.9260841 -105.22509211 70.9260841 -103.1875 70.65234375 C-100.54846332 69.46898584 -98.55726248 67.89544609 -96.29296875 66.09375 C-82.54634019 55.9205156 -67.00028041 51.32431493 -50.10546875 49.71875 C-50.13688965 48.8122168 -50.16831055 47.90568359 -50.20068359 46.97167969 C-50.30405364 43.54956404 -50.37868353 40.12914849 -50.43505859 36.70605469 C-50.46490143 35.23573336 -50.50559308 33.76558475 -50.55810547 32.29589844 C-50.95034204 21.02101986 -49.72455944 12.14603548 -41.95483398 3.25878906 C-29.59768509 -9.11761465 -14.24956113 -8.67134704 0 0 Z M-86.10546875 24.71875 C-86.43546875 25.70875 -86.76546875 26.69875 -87.10546875 27.71875 C-85.78546875 28.04875 -84.46546875 28.37875 -83.10546875 28.71875 C-83.76546875 27.39875 -84.42546875 26.07875 -85.10546875 24.71875 C-85.43546875 24.71875 -85.76546875 24.71875 -86.10546875 24.71875 Z M0.89453125 29.71875 C1.55453125 31.03875 2.21453125 32.35875 2.89453125 33.71875 C3.22453125 32.39875 3.55453125 31.07875 3.89453125 29.71875 C2.90453125 29.71875 1.91453125 29.71875 0.89453125 29.71875 Z M-98.10546875 76.71875 C-95.85693013 81.71050574 -92.61060736 85.59349656 -88.10546875 88.71875 C-85.38513245 89.21965025 -83.14617412 89.18633893 -80.40234375 88.90234375 C-77.99389344 88.70983156 -76.3565791 88.84719179 -74.10546875 89.71875 C-73.43880208 91.38541667 -72.77213542 93.05208333 -72.10546875 94.71875 C-70.36846422 95.66600179 -70.36846422 95.66600179 -68.10546875 95.71875 C-65.23733451 94.75595358 -65.23733451 94.75595358 -62.35546875 93.28125 C-61.370625 92.80816406 -60.38578125 92.33507812 -59.37109375 91.84765625 C-58.6234375 91.47511719 -57.87578125 91.10257813 -57.10546875 90.71875 C-57.31171875 89.666875 -57.51796875 88.615 -57.73046875 87.53125 C-58.11197387 83.6526146 -57.80386656 82.11554561 -56.10546875 78.71875 C-55.61046875 77.23375 -55.61046875 77.23375 -55.10546875 75.71875 C-53.45546875 75.05875 -51.80546875 74.39875 -50.10546875 73.71875 C-50.10546875 68.43875 -50.10546875 63.15875 -50.10546875 57.71875 C-68.76357781 57.71875 -83.7572496 65.28881271 -98.10546875 76.71875 Z M-42.10546875 57.71875 C-42.10546875 62.99875 -42.10546875 68.27875 -42.10546875 73.71875 C-39.63046875 74.70875 -39.63046875 74.70875 -37.10546875 75.71875 C-34.63468644 80.54265831 -34.89413728 85.43546321 -35.10546875 90.71875 C-33.33791349 91.55901396 -31.56629612 92.39073722 -29.79296875 93.21875 C-28.80683594 93.6828125 -27.82070312 94.146875 -26.8046875 94.625 C-24.12746749 95.90652472 -24.12746749 95.90652472 -21.10546875 95.71875 C-20.54859375 94.77 -19.99171875 93.82125 -19.41796875 92.84375 C-16.72980826 89.21110068 -15.3456966 88.69237245 -11.078125 87.88671875 C-8.58868783 87.67474687 -6.48572203 87.97492085 -4.10546875 88.71875 C-3.71875 88.25984375 -3.33203125 87.8009375 -2.93359375 87.328125 C-0.10350924 83.993669 2.7381448 80.75373697 5.89453125 77.71875 C-5.15533191 65.59954524 -20.14295588 59.6587569 -36.10546875 57.71875 C-38.08546875 57.71875 -40.06546875 57.71875 -42.10546875 57.71875 Z M-50.10546875 81.71875 C-50.52213542 84.21875 -50.52213542 84.21875 -50.10546875 86.71875 C-49.44546875 87.37875 -48.78546875 88.03875 -48.10546875 88.71875 C-45.50266307 88.39833603 -45.50266307 88.39833603 -43.10546875 87.71875 C-42.10329811 84.13547247 -42.10329811 84.13547247 -43.10546875 80.71875 C-46.52311922 79.35168981 -46.84746671 79.54674864 -50.10546875 81.71875 Z M-105.10546875 83.71875 C-117.50289565 97.90319339 -122.20843731 113.5295662 -124.10546875 131.71875 C-121.54040451 131.88151553 -118.98571453 131.99988984 -116.41796875 132.09375 C-115.69673828 132.14402344 -114.97550781 132.19429687 -114.23242188 132.24609375 C-110.07792072 132.42177819 -110.07792072 132.42177819 -106.6328125 130.3894043 C-105.44343071 128.84288476 -104.27380773 127.28122744 -103.10546875 125.71875 C-100.75390625 124.87890625 -100.75390625 124.87890625 -98.48046875 124.78125 C-97.72507812 124.73097656 -96.9696875 124.68070313 -96.19140625 124.62890625 C-94.10546875 124.71875 -94.10546875 124.71875 -91.10546875 125.71875 C-90.23453085 123.99796959 -89.38432317 122.26668677 -88.54296875 120.53125 C-87.82947266 119.08685547 -87.82947266 119.08685547 -87.1015625 117.61328125 C-85.99382049 114.3943133 -85.97410598 112.89968302 -87.10546875 109.71875 C-89.54453935 107.51732668 -89.54453935 107.51732668 -92.10546875 105.71875 C-93.36729178 103.19510395 -92.88991518 101.99432148 -92.54296875 99.21875 C-92.45887263 95.37275423 -92.91828469 93.96946114 -95.2578125 90.8359375 C-97.78127873 88.29436893 -100.26806083 85.90494955 -103.10546875 83.71875 C-103.76546875 83.71875 -104.42546875 83.71875 -105.10546875 83.71875 Z M10.89453125 83.71875 C4.05796505 88.40633734 4.05796505 88.40633734 0.3359375 95.3671875 C0.41553396 97.07722753 0.54317247 98.78582477 0.72265625 100.48828125 C0.89453125 102.71875 0.89453125 102.71875 -0.29296875 105.65625 C-2.33729738 107.982555 -4.36074178 109.30929561 -7.10546875 110.71875 C-5.57073907 115.44099516 -3.86601749 120.07730331 -2.10546875 124.71875 C-1.44160156 124.61175781 -0.77773437 124.50476563 -0.09375 124.39453125 C7.13760039 123.41275667 7.13760039 123.41275667 10.83203125 124.90625 C12.89453125 126.71875 12.89453125 126.71875 14.01171875 128.81640625 C15.89783264 131.12473297 15.89783264 131.12473297 19.6875 131.109375 C21.15285356 131.08285276 22.61794676 131.03524117 24.08203125 130.96875 C24.83162109 130.95070312 25.58121094 130.93265625 26.35351562 130.9140625 C28.20106835 130.86699109 30.04796284 130.79524766 31.89453125 130.71875 C32.166891 124.91359649 31.21830779 119.93819273 29.70703125 114.34375 C29.47927002 113.498125 29.25150879 112.6525 29.0168457 111.78125 C27.35990155 105.87770819 25.4529576 100.75587899 21.89453125 95.71875 C21.23839844 94.749375 20.58226562 93.78 19.90625 92.78125 C16.34984148 87.06881252 16.34984148 87.06881252 10.89453125 83.71875 Z M-152.10546875 85.71875 C-151.77546875 87.03875 -151.44546875 88.35875 -151.10546875 89.71875 C-150.11546875 88.39875 -149.12546875 87.07875 -148.10546875 85.71875 C-149.42546875 85.71875 -150.74546875 85.71875 -152.10546875 85.71875 Z M61.89453125 93.71875 C61.56453125 95.36875 61.23453125 97.01875 60.89453125 98.71875 C61.88453125 98.38875 62.87453125 98.05875 63.89453125 97.71875 C63.56453125 96.39875 63.23453125 95.07875 62.89453125 93.71875 C62.56453125 93.71875 62.23453125 93.71875 61.89453125 93.71875 Z M-12.10546875 94.71875 C-14.37386858 96.55140325 -14.37386858 96.55140325 -14.29296875 99.28125 C-14.37550198 101.66564723 -14.37550198 101.66564723 -13.10546875 102.71875 C-10.10546875 102.88541667 -10.10546875 102.88541667 -7.10546875 102.71875 C-5.83543552 101.66564723 -5.83543552 101.66564723 -5.91796875 99.28125 C-5.83706892 96.55140325 -5.83706892 96.55140325 -8.10546875 94.71875 C-9.42546875 94.71875 -10.74546875 94.71875 -12.10546875 94.71875 Z M-86.10546875 96.71875 C-86.14627658 98.71833364 -86.14801231 100.71920254 -86.10546875 102.71875 C-83.20473694 103.39676034 -83.20473694 103.39676034 -80.10546875 103.71875 C-79.44546875 103.05875 -78.78546875 102.39875 -78.10546875 101.71875 C-78.39530144 98.41191534 -78.39530144 98.41191534 -80.10546875 95.71875 C-83.39441768 95.31246033 -83.39441768 95.31246033 -86.10546875 96.71875 Z M-64.10546875 101.71875 C-64.87246094 102.11964844 -65.63945312 102.52054687 -66.4296875 102.93359375 C-74.57916737 107.70705819 -81.17072924 115.97102332 -83.70703125 125.14453125 C-85.28117132 135.31471074 -85.20359694 146.15957658 -79.62890625 155.08203125 C-74.20078216 162.45585279 -67.92405005 168.7792229 -59.10546875 171.71875 C-58.14253906 172.04166016 -58.14253906 172.04166016 -57.16015625 172.37109375 C-47.97335332 174.96441635 -38.33109643 174.16029204 -29.73046875 170.09375 C-19.43930284 164.31865423 -13.33361644 157.34891727 -8.73046875 146.46875 C-6.54285253 133.34305268 -8.37495388 122.95441201 -15.73046875 111.90625 C-19.7918696 106.61435038 -24.12681593 103.56296348 -30.10546875 100.71875 C-30.71648437 100.38101563 -31.3275 100.04328125 -31.95703125 99.6953125 C-41.63204701 95.04960009 -55.02886577 96.64793327 -64.10546875 101.71875 Z M0.89453125 132.71875 C1.22453125 134.69875 1.55453125 136.67875 1.89453125 138.71875 C3.87453125 138.71875 5.85453125 138.71875 7.89453125 138.71875 C8.55453125 137.06875 9.21453125 135.41875 9.89453125 133.71875 C8.58251952 132.15625191 8.58251952 132.15625191 6.89453125 130.71875 C3.70963118 130.4413999 3.70963118 130.4413999 0.89453125 132.71875 Z M-101.10546875 133.71875 C-101.35554605 136.26065002 -101.35554605 136.26065002 -101.10546875 138.71875 C-99.98710651 140.06279775 -99.98710651 140.06279775 -97.10546875 139.84375 C-94.22383099 140.06279775 -94.22383099 140.06279775 -93.10546875 138.71875 C-93.3927693 136.37930264 -93.72483654 134.0448357 -94.10546875 131.71875 C-98.06004723 131.37051193 -98.06004723 131.37051193 -101.10546875 133.71875 Z M15.89453125 138.71875 C13.987971 141.03495122 13.987971 141.03495122 12.89453125 143.71875 C9.36774026 146.06994399 7.8657364 145.93318452 3.70703125 145.84375 C2.62035156 145.82570312 1.53367188 145.80765625 0.4140625 145.7890625 C-0.83310547 145.75425781 -0.83310547 145.75425781 -2.10546875 145.71875 C-2.78014437 147.46567795 -3.44491031 149.21643525 -4.10546875 150.96875 C-4.47671875 151.94328125 -4.84796875 152.9178125 -5.23046875 153.921875 C-6.30452113 156.86658138 -6.30452113 156.86658138 -6.10546875 160.71875 C-4.45475479 161.74486949 -2.78576869 162.74183143 -1.10546875 163.71875 C0.76953125 165.90625 0.76953125 165.90625 1.89453125 168.71875 C1.58515625 169.935625 1.27578125 171.1525 0.95703125 172.40625 C0.45023833 174.48158886 0.45023833 174.48158886 0.89453125 176.71875 C3.77239655 180.57607997 7.05961683 183.81279001 10.89453125 186.71875 C11.88453125 186.71875 12.87453125 186.71875 13.89453125 186.71875 C18.62976435 181.97057911 21.83917478 175.62644923 24.89453125 169.71875 C25.39210937 168.78804687 25.8896875 167.85734375 26.40234375 166.8984375 C30.51650856 158.13160464 32.71387195 148.39152216 31.89453125 138.71875 C29.28864235 138.58380754 26.68971014 138.48472701 24.08203125 138.40625 C23.34404297 138.36435547 22.60605469 138.32246094 21.84570312 138.27929688 C19.40713279 138.17011393 19.40713279 138.17011393 15.89453125 138.71875 Z M-124.10546875 139.71875 C-123.1768498 157.13035536 -116.60937499 174.44501203 -105.10546875 187.71875 C-100.83723161 187.24450143 -98.93054144 184.76113597 -96.10546875 181.71875 C-95.50734375 181.285625 -94.90921875 180.8525 -94.29296875 180.40625 C-92.57395042 177.96343448 -93.07888035 175.72861835 -93.1796875 172.84765625 C-93.05599696 169.29969066 -91.83892586 166.76724354 -90.10546875 163.71875 C-87.41796875 161.78125 -87.41796875 161.78125 -85.10546875 160.71875 C-85.37359375 159.914375 -85.64171875 159.11 -85.91796875 158.28125 C-87.31380208 154.09375 -88.70963542 149.90625 -90.10546875 145.71875 C-90.69585937 145.87601563 -91.28625 146.03328125 -91.89453125 146.1953125 C-95.6933125 147.09467061 -99.36293437 147.76115896 -102.85546875 145.671875 C-105.04049118 143.88603936 -106.83370901 142.26226948 -108.10546875 139.71875 C-113.38546875 139.71875 -118.66546875 139.71875 -124.10546875 139.71875 Z M-84.10546875 167.71875 C-86.39146903 170.42207305 -86.39146903 170.42207305 -85.79296875 172.84375 C-85.25968389 174.70468853 -85.25968389 174.70468853 -84.10546875 175.71875 C-81.60546875 175.88541667 -81.60546875 175.88541667 -79.10546875 175.71875 C-77.761421 174.60038776 -77.761421 174.60038776 -77.98046875 171.71875 C-77.761421 168.83711224 -77.761421 168.83711224 -79.10546875 167.71875 C-81.56338904 167.38531449 -81.56338904 167.38531449 -84.10546875 167.71875 Z M-10.10546875 166.71875 C-11.09546875 167.37875 -12.08546875 168.03875 -13.10546875 168.71875 C-13.52213542 171.21875 -13.52213542 171.21875 -13.10546875 173.71875 C-12.44546875 174.37875 -11.78546875 175.03875 -11.10546875 175.71875 C-8.50266307 175.39833603 -8.50266307 175.39833603 -6.10546875 174.71875 C-5.77546875 173.06875 -5.44546875 171.41875 -5.10546875 169.71875 C-6.75546875 168.72875 -8.40546875 167.73875 -10.10546875 166.71875 Z M-153.10546875 171.71875 C-154.13154215 173.03212396 -155.132742 174.36539105 -156.10546875 175.71875 C-155.11546875 176.04875 -154.12546875 176.37875 -153.10546875 176.71875 C-152.77546875 175.06875 -152.44546875 173.41875 -152.10546875 171.71875 C-152.43546875 171.71875 -152.76546875 171.71875 -153.10546875 171.71875 Z M-70.10546875 174.71875 C-74.31370043 178.91185223 -74.31370043 178.91185223 -74.10546875 181.71875 C-75.50087016 181.88899505 -76.89681784 182.0547649 -78.29296875 182.21875 C-79.45892578 182.35796875 -79.45892578 182.35796875 -80.6484375 182.5 C-83.10546875 182.71875 -83.10546875 182.71875 -85.6015625 182.484375 C-89.18252524 182.81956652 -90.49353215 184.44104394 -92.98046875 186.96875 C-93.78226562 187.75765625 -94.5840625 188.5465625 -95.41015625 189.359375 C-97.28280395 191.50902726 -97.28280395 191.50902726 -97.1875 193.7421875 C-91.81401815 203.55800634 -76.44476464 208.67908865 -66.62109375 211.83984375 C-63.08529098 212.72379444 -59.80131294 213.11900706 -56.16796875 213.34375 C-55.02457031 213.41851562 -53.88117188 213.49328125 -52.703125 213.5703125 C-51.84589844 213.61929688 -50.98867187 213.66828125 -50.10546875 213.71875 C-47.76441584 209.03664418 -48.46400748 202.78570554 -49.10546875 197.71875 C-50.84002582 195.13025714 -52.35858108 194.3668826 -55.10546875 192.71875 C-58.02091959 188.36426253 -56.835956 184.68606332 -56.10546875 179.71875 C-60.72546875 178.06875 -65.34546875 176.41875 -70.10546875 174.71875 Z M-25.85546875 175.59375 C-28.88932738 177.13250563 -31.91668374 178.52295562 -35.10546875 179.71875 C-34.986875 180.29882812 -34.86828125 180.87890625 -34.74609375 181.4765625 C-34.01699286 185.89491389 -33.76579853 188.05154064 -35.85546875 192.15625 C-38.10546875 194.71875 -38.10546875 194.71875 -41.10546875 196.71875 C-42.42398383 201.63321528 -43.45807286 209.01354179 -41.10546875 213.71875 C-22.93216538 212.20430805 -8.32592197 206.28707607 5.89453125 194.71875 C5.15319363 189.74608533 1.97717474 186.96936922 -1.4921875 183.56640625 C-5.11856509 181.00246514 -7.58363239 181.23291818 -11.87109375 181.65234375 C-14.10546875 181.71875 -14.10546875 181.71875 -17.10546875 179.96875 C-18.91965892 177.92778605 -20.11151242 176.24882066 -21.10546875 173.71875 C-22.86450382 173.71875 -24.31698624 174.80137367 -25.85546875 175.59375 Z M57.89453125 181.71875 C57.89453125 183.03875 57.89453125 184.35875 57.89453125 185.71875 C58.55453125 185.71875 59.21453125 185.71875 59.89453125 185.71875 C59.89453125 184.39875 59.89453125 183.07875 59.89453125 181.71875 C59.23453125 181.71875 58.57453125 181.71875 57.89453125 181.71875 Z M-48.10546875 182.71875 C-49.32237408 184.48404595 -49.32237408 184.48404595 -50.10546875 186.71875 C-49.32237408 188.95345405 -49.32237408 188.95345405 -48.10546875 190.71875 C-46.4393497 190.761471 -44.7716399 190.75938832 -43.10546875 190.71875 C-41.761421 189.60038776 -41.761421 189.60038776 -41.98046875 186.71875 C-41.761421 183.83711224 -41.761421 183.83711224 -43.10546875 182.71875 C-44.7716399 182.67811168 -46.4393497 182.676029 -48.10546875 182.71875 Z M-96.10546875 237.71875 C-96.10546875 239.03875 -96.10546875 240.35875 -96.10546875 241.71875 C-94.78546875 241.38875 -93.46546875 241.05875 -92.10546875 240.71875 C-92.76546875 239.72875 -93.42546875 238.73875 -94.10546875 237.71875 C-94.76546875 237.71875 -95.42546875 237.71875 -96.10546875 237.71875 Z M-9.10546875 241.71875 C-8.44546875 243.03875 -7.78546875 244.35875 -7.10546875 245.71875 C-5.78546875 245.05875 -4.46546875 244.39875 -3.10546875 243.71875 C-5.94795415 242.14601432 -5.94795415 242.14601432 -9.10546875 241.71875 Z " fill="#F8F8F9" transform="translate(200.10546875,9.28125)"/>
<path d="M0 0 C0.78915298 0.0028299 1.57830597 0.00565979 2.39137268 0.00857544 C4.88737797 0.01968193 7.38301123 0.04476795 9.87890625 0.0703125 C11.58137499 0.08035465 13.28384941 0.08947833 14.98632812 0.09765625 C19.13816201 0.1195899 23.28972127 0.15405273 27.44140625 0.1953125 C27.93640625 1.6803125 27.93640625 1.6803125 28.44140625 3.1953125 C20.79746987 8.56159741 13.1347531 13.9001411 5.44140625 19.1953125 C4.53132813 19.824375 3.62125 20.4534375 2.68359375 21.1015625 C1.48089844 21.92140625 1.48089844 21.92140625 0.25390625 22.7578125 C-0.44089844 23.23347656 -1.13570312 23.70914063 -1.8515625 24.19921875 C-3.55859375 25.1953125 -3.55859375 25.1953125 -5.55859375 25.1953125 C-6.6872155 19.83435917 -6.65547596 14.64224564 -6.55859375 9.1953125 C-15.45447923 11.65908481 -15.45447923 11.65908481 -21.7109375 18.125 C-24.56501004 23.67063561 -26.67489646 28.85954036 -25.55859375 35.1953125 C-24.15634282 38.42498665 -22.5749975 41.47815665 -20.87109375 44.55859375 C-19.55859375 47.1953125 -19.55859375 47.1953125 -19.55859375 50.1953125 C-23.67666154 47.19023601 -26.83381583 44.44493494 -27.9831543 39.29174805 C-28.29628914 37.15778279 -28.53699772 35.02940382 -28.74609375 32.8828125 C-28.86887695 31.77196289 -28.86887695 31.77196289 -28.99414062 30.63867188 C-29.19301963 28.82536327 -29.37729202 27.01046281 -29.55859375 25.1953125 C-29.63998517 27.59183778 -29.69926384 29.98556686 -29.74609375 32.3828125 C-29.77123047 33.05634766 -29.79636719 33.72988281 -29.82226562 34.42382812 C-29.88887959 38.97578224 -29.0827156 41.46544215 -26.55859375 45.1953125 C-26.55859375 46.1853125 -26.55859375 47.1753125 -26.55859375 48.1953125 C-25.89859375 48.1953125 -25.23859375 48.1953125 -24.55859375 48.1953125 C-24.55859375 49.1853125 -24.55859375 50.1753125 -24.55859375 51.1953125 C-23.23859375 51.1953125 -21.91859375 51.1953125 -20.55859375 51.1953125 C-19.89859375 52.5153125 -19.23859375 53.8353125 -18.55859375 55.1953125 C-21.7478881 55.1953125 -23.8426162 54.88381849 -26.1875 52.62890625 C-33.14932189 43.71288875 -34.71150902 35.4783372 -33.55859375 24.1953125 C-32.67552297 20.84762608 -31.3818916 18.12844382 -29.55859375 15.1953125 C-29.12289063 14.48632812 -28.6871875 13.77734375 -28.23828125 13.046875 C-21.38035374 2.96609631 -11.75233803 -0.16146675 0 0 Z M1.44140625 8.1953125 C1.77140625 9.5153125 2.10140625 10.8353125 2.44140625 12.1953125 C3.43140625 10.8753125 4.42140625 9.5553125 5.44140625 8.1953125 C4.12140625 8.1953125 2.80140625 8.1953125 1.44140625 8.1953125 Z " fill="#F0F1F1" transform="translate(46.55859375,86.8046875)"/>
<path d="M0 0 C0 0.66 0 1.32 0 2 C-1.66611905 2.042721 -3.33382885 2.04063832 -5 2 C-5.495 1.505 -5.495 1.505 -6 1 C-16.17565163 0.93656078 -22.77922439 1.82337951 -30.8125 8.25 C-33 10 -33 10 -35 10 C-35.28875 10.928125 -35.5775 11.85625 -35.875 12.8125 C-37 16 -37 16 -39 19 C-41.84114062 26.73577891 -40.50436127 33.39659495 -38 41 C-35.31251838 45.3379115 -32.21941563 48.18705625 -28 51 C-28.66 49.35 -29.32 47.7 -30 46 C-30.66 46 -31.32 46 -32 46 C-32.84069415 44.39967863 -33.67231505 42.79458829 -34.5 41.1875 C-35.19609375 39.84751953 -35.19609375 39.84751953 -35.90625 38.48046875 C-37 36 -37 36 -37 33 C-36.34 33 -35.68 33 -35 33 C-34.72027344 33.64066406 -34.44054687 34.28132813 -34.15234375 34.94140625 C-31.57651207 40.49890805 -28.94848187 44.55102674 -24.35546875 48.625 C-23 50 -23 50 -23 52 C-22.4121875 52.25394531 -21.824375 52.50789063 -21.21875 52.76953125 C-18.09443492 54.50220599 -16.12443908 56.97932932 -13.78125 59.63671875 C-12.09329347 61.24878522 -12.09329347 61.24878522 -9.90234375 60.80078125 C-7.895618 60.0521486 -7.895618 60.0521486 -6.0625 58.5 C-3.70141782 56.78284932 -1.86309322 56.39765184 1 56 C-0.66666667 57.66666667 -2.33333333 59.33333333 -4 61 C-4.556875 61.598125 -5.11375 62.19625 -5.6875 62.8125 C-7 64 -7 64 -9 64 C-9 64.66 -9 65.32 -9 66 C-10.65 66 -12.3 66 -14 66 C-14 66.66 -14 67.32 -14 68 C-13.34 68.33 -12.68 68.66 -12 69 C-14.475 69.99 -14.475 69.99 -17 71 C-17.37366699 69.88637085 -17.37366699 69.88637085 -17.75488281 68.75024414 C-19.11524251 65.74544963 -20.51153498 64.22227234 -22.921875 61.99609375 C-23.69805176 61.26165039 -24.47422852 60.52720703 -25.27392578 59.77050781 C-26.09103027 59.00061523 -26.90813477 58.23072266 -27.75 57.4375 C-36.70352923 48.68957684 -43.06287246 41.94446533 -43.625 28.875 C-43.19545453 19.82457687 -40.55964565 12.41387575 -34 6 C-24.23889481 -1.64711819 -11.9103254 -5.29347795 0 0 Z " fill="#F3F3F3" transform="translate(107,19)"/>
<path d="M0 0 C1.34362885 0.00031689 2.68728332 0.01162897 4.03076172 0.03173828 C4.73820526 0.03456818 5.4456488 0.03739807 6.17453003 0.04031372 C8.43667432 0.05151941 10.69842437 0.07662399 12.96044922 0.10205078 C14.49299559 0.11208011 16.02554816 0.12120604 17.55810547 0.12939453 C21.31737223 0.15145992 25.07634386 0.18599183 28.83544922 0.22705078 C29.33044922 1.71205078 29.33044922 1.71205078 29.83544922 3.22705078 C27.52495302 4.84909213 25.21214821 6.46744794 22.89404297 8.07861328 C20.7639708 9.57483256 18.65600131 11.08591839 16.55810547 12.62548828 C5.81681785 20.42150825 5.81681785 20.42150825 -1.16455078 21.22705078 C-2.16455078 20.22705078 -2.16455078 20.22705078 -2.26220703 16.84814453 C-2.25553447 15.45358001 -2.2435761 14.05903336 -2.22705078 12.66455078 C-2.22253906 11.95363281 -2.21802734 11.24271484 -2.21337891 10.51025391 C-2.20155942 8.74915065 -2.18362341 6.98809042 -2.16455078 5.22705078 C-6.61955078 6.71205078 -6.61955078 6.71205078 -11.16455078 8.22705078 C-11.16455078 6.90705078 -11.16455078 5.58705078 -11.16455078 4.22705078 C-9.74142578 3.79392578 -9.74142578 3.79392578 -8.28955078 3.35205078 C-4.68893921 2.05583062 -3.83908965 0.27544772 0 0 Z M2.83544922 8.22705078 C3.16544922 9.54705078 3.49544922 10.86705078 3.83544922 12.22705078 C4.82544922 10.90705078 5.81544922 9.58705078 6.83544922 8.22705078 C5.51544922 8.22705078 4.19544922 8.22705078 2.83544922 8.22705078 Z " fill="#F9FAFA" transform="translate(45.16455078125,86.77294921875)"/>
<path d="M0 0 C0.66 0.33 1.32 0.66 2 1 C3.68191283 7.87481869 3.70914263 13.72006123 0.3125 20 C-1.89283797 23.50500351 -4.11728881 27.01433484 -7 30 C-7.66 30 -8.32 30 -9 30 C-9.226875 30.556875 -9.45375 31.11375 -9.6875 31.6875 C-11 34 -11 34 -13.4375 36.375 C-16.1170688 38.85316794 -16.1170688 38.85316794 -17.5 42 C-19.20808359 45.41616719 -21.09812652 47.53340755 -24 50 C-24.99 50 -25.98 50 -27 50 C-27.41467342 41.98298054 -25.85939879 34.78069851 -24 27 C-23.01 27.33 -22.02 27.66 -21 28 C-20.93941406 27.40832031 -20.87882812 26.81664063 -20.81640625 26.20703125 C-20.37987629 22.09021792 -19.91328654 18.04455467 -19 14 C-15.64179869 15.67910066 -13.0432871 18.82063197 -10.5625 21.625 C-8.74635785 23.22320509 -7.35804482 23.59344055 -5 24 C-4.87625 23.195625 -4.7525 22.39125 -4.625 21.5625 C-4.41875 20.716875 -4.2125 19.87125 -4 19 C-3.34 18.67 -2.68 18.34 -2 18 C-1.53272148 16.16471137 -1.53272148 16.16471137 -1.3671875 13.96484375 C-1.24150391 12.75151367 -1.24150391 12.75151367 -1.11328125 11.51367188 C-1.03464844 10.66353516 -0.95601563 9.81339844 -0.875 8.9375 C-0.78863281 8.08349609 -0.70226562 7.22949219 -0.61328125 6.34960938 C-0.40052772 4.23389367 -0.19920047 2.11703476 0 0 Z M-15 25 C-15.33 26.65 -15.66 28.3 -16 30 C-15.01 29.67 -14.02 29.34 -13 29 C-13.33 27.68 -13.66 26.36 -14 25 C-14.33 25 -14.66 25 -15 25 Z " fill="#F9FAFB" transform="translate(277,78)"/>
<path d="M0 0 C1.35384615 6.4 1.35384615 6.4 -0.4375 9.4375 C-0.953125 9.953125 -1.46875 10.46875 -2 11 C-2.33 9.68 -2.66 8.36 -3 7 C-7.43593314 7.50696379 -9.62433768 9.17174238 -13 12 C-13.66 12 -14.32 12 -15 12 C-15 12.99 -15 13.98 -15 15 C-10.52116304 14.55296014 -10.52116304 14.55296014 -7 12 C-6.67 12.66 -6.34 13.32 -6 14 C-5.01 14.66 -4.02 15.32 -3 16 C-3.495 16.45375 -3.99 16.9075 -4.5 17.375 C-6.22609337 18.87635519 -6.22609337 18.87635519 -6 21 C-9.22914752 21.02917228 -12.45826083 21.04685663 -15.6875 21.0625 C-17.05551758 21.07506836 -17.05551758 21.07506836 -18.45117188 21.08789062 C-19.33740234 21.09111328 -20.22363281 21.09433594 -21.13671875 21.09765625 C-21.94842529 21.10289307 -22.76013184 21.10812988 -23.59643555 21.11352539 C-26.14864673 20.9929791 -28.51026137 20.559949 -31 20 C-29.52793565 16.28324085 -27.61071648 14.74952563 -24.3125 12.5625 C-21.24363651 10.50777243 -18.24080827 8.43697317 -15.3125 6.1875 C-11.87402552 3.9168093 -8.96931918 2.9923298 -5 2 C-2 0 -2 0 0 0 Z " fill="#FAFBFB" transform="translate(265,182)"/>
<path d="M0 0 C0.99 0 1.98 0 3 0 C2.690625 0.5775 2.38125 1.155 2.0625 1.75 C0.93289763 3.87740913 0.93289763 3.87740913 0.6875 5.875 C-0.37831422 9.16933485 -2.79555797 11.36542294 -5 14 C-7.17028891 18.20349237 -7.23268602 21.79790453 -7.1953125 26.48828125 C-7.1924826 27.19147995 -7.18965271 27.89467865 -7.18673706 28.6191864 C-7.17560151 30.85046892 -7.15050997 33.08134017 -7.125 35.3125 C-7.1149616 36.83137438 -7.10583726 38.3502551 -7.09765625 39.86914062 C-7.07568413 43.57955921 -7.04120047 47.28973942 -7 51 C-7.99 50.67 -8.98 50.34 -10 50 C-10 49.34 -10 48.68 -10 48 C-11.485 48.495 -11.485 48.495 -13 49 C-13.16726689 44.60364953 -13.32786093 40.20712239 -13.48217773 35.81030273 C-13.53566434 34.31349062 -13.5909987 32.81674337 -13.64819336 31.32006836 C-13.72991956 29.17315668 -13.8050746 27.02610207 -13.87890625 24.87890625 C-13.9260376 23.5854126 -13.97316895 22.29191895 -14.02172852 20.95922852 C-14 18 -14 18 -13 17 C-13.66 16.34 -14.32 15.68 -15 15 C-11.20140438 9.77693103 -6.24493391 4.08164464 0 2 C0 1.34 0 0.68 0 0 Z M-3 6 C-2 8 -2 8 -2 8 Z " fill="#FBFBFB" transform="translate(166,9)"/>
<path d="M0 0 C-0.185625 0.61875 -0.37125 1.2375 -0.5625 1.875 C-1.23686176 4.04160178 -1.23686176 4.04160178 0 6 C0.0396713 7.66619446 0.04384447 9.33391013 0 11 C0.99 11 1.98 11 3 11 C2.77722266 17.23776564 1.30608828 22.45669091 -0.875 28.25 C-1.13168457 28.93513672 -1.38836914 29.62027344 -1.65283203 30.32617188 C-3.1196511 34.10615815 -4.64817963 37.68431882 -7 41 C-7.66 41 -8.32 41 -9 41 C-8.34 39.02 -7.68 37.04 -7 35 C-7.78375 35.78375 -8.5675 36.5675 -9.375 37.375 C-10.91666667 38.91666667 -12.45833333 40.45833333 -14 42 C-14 37.66907161 -13.30790984 36.3703436 -11.25 32.6875 C-6.14797923 22.80911937 -3.52212135 12.09507877 -3 1 C-4.65 1 -6.3 1 -8 1 C-8 0.67 -8 0.34 -8 0 C-4.71303767 -0.79953138 -3.28976808 -1.09658936 0 0 Z " fill="#F3F5F5" transform="translate(235,147)"/>
<path d="M0 0 C1.27310312 0.93441535 2.543388 1.87267111 3.8125 2.8125 C4.52019531 3.33457031 5.22789063 3.85664063 5.95703125 4.39453125 C7.79961207 5.84252498 9.46364869 7.23101505 11 9 C11 9.66 11 10.32 11 11 C11.66 11 12.32 11 13 11 C14.23004804 12.42951528 15.45371641 13.86570167 16.625 15.34375 C18.15474833 17.25098634 18.15474833 17.25098634 20.8125 19.6875 C23 22 23 22 23 25 C19.61725734 26.12758089 18.23221777 25.81750262 14.8125 25.0625 C13.91144531 24.86785156 13.01039062 24.67320313 12.08203125 24.47265625 C11.39496094 24.31667969 10.70789063 24.16070312 10 24 C9.67 22.35 9.34 20.7 9 19 C6.36 18.34 3.72 17.68 1 17 C1 16.01 1 15.02 1 14 C1.66 14 2.32 14 3 14 C2.01 13.01 1.02 12.02 0 11 C0 12.32 0 13.64 0 15 C-1.65 15 -3.3 15 -5 15 C-4.34 13.02 -3.68 11.04 -3 9 C-0.875 8.1875 -0.875 8.1875 2 8 C4.30107561 9.44423481 6.01646386 11.10872135 8 13 C8 12.34 8 11.68 8 11 C7.01 10.34 6.02 9.68 5 9 C4.67 8.01 4.34 7.02 4 6 C1.50240018 4.30117552 1.50240018 4.30117552 -1 3 C-0.67 2.01 -0.34 1.02 0 0 Z " fill="#F9F9FB" transform="translate(114,24)"/>
<path d="M0 0 C0 0.66 0 1.32 0 2 C-1.66611905 2.042721 -3.33382885 2.04063832 -5 2 C-5.495 1.505 -5.495 1.505 -6 1 C-16.17565163 0.93656078 -22.77922439 1.82337951 -30.8125 8.25 C-33 10 -33 10 -35 10 C-35.28875 10.928125 -35.5775 11.85625 -35.875 12.8125 C-37 16 -37 16 -39 19 C-41.04628542 24.44790275 -40.99856459 28.09740757 -39.75 33.75 C-39.61464844 34.40871094 -39.47929688 35.06742188 -39.33984375 35.74609375 C-38.62779474 39.0268429 -37.88483892 41.17274162 -36 44 C-36.33 44.99 -36.66 45.98 -37 47 C-37.81642254 45.73168307 -38.62799105 44.46024069 -39.4375 43.1875 C-39.88996094 42.47980469 -40.34242187 41.77210937 -40.80859375 41.04296875 C-44.49388448 34.72360136 -43.97547838 25.9814362 -42.28125 19.06640625 C-38.8946704 10.09470142 -33.26487526 4.62833014 -25 0 C-17.37991164 -3.16305555 -7.59627408 -3.37612181 0 0 Z " fill="#EEEEEF" transform="translate(107,19)"/>
<path d="M0 0 C6.88349561 4.93059376 10.30398099 10.71011269 12 19 C12.89480092 28.05069125 11.60016769 36.21177697 6.046875 43.59765625 C3.77964593 46.16216186 1.43182957 48.59133071 -1 51 C-1.85335938 51.86625 -2.70671875 52.7325 -3.5859375 53.625 C-5.70795383 55.7670985 -7.84515891 57.89100659 -10 60 C-10.495 58.515 -10.495 58.515 -11 57 C-9.39346472 54.84265263 -7.82940489 52.94628353 -6 51 C-5.278125 50.21625 -4.55625 49.4325 -3.8125 48.625 C-2 47 -2 47 0 47 C0.2475 46.46375 0.495 45.9275 0.75 45.375 C2 43 2 43 3.9375 40.125 C4.618125 39.09375 5.29875 38.0625 6 37 C6.8971875 35.7315625 6.8971875 35.7315625 7.8125 34.4375 C9.93197857 28.3021673 9.04010651 21.12031953 7 15 C6.64456573 12.66993089 6.3086247 10.33672984 6 8 C5.01 7.67 4.02 7.34 3 7 C1.60287726 5.04402816 0.26220093 3.04563599 -1 1 C-0.67 0.67 -0.34 0.34 0 0 Z " fill="#EBECEC" transform="translate(270,61)"/>
<path d="M0 0 C0.65234375 1.734375 0.65234375 1.734375 1 4 C0.00390625 6.140625 0.00390625 6.140625 -1.4375 8.25 C-1.91058594 8.95640625 -2.38367187 9.6628125 -2.87109375 10.390625 C-3.24363281 10.92171875 -3.61617187 11.4528125 -4 12 C-2.35 11.67 -0.7 11.34 1 11 C0.34 16.61 -0.32 22.22 -1 28 C-1.99 27.67 -2.98 27.34 -4 27 C-4.33 24.36 -4.66 21.72 -5 19 C-5.51783416 26.76751234 -3.74454913 32.75880117 -1 40 C-1.99 40.495 -1.99 40.495 -3 41 C-3.82011312 39.44148245 -4.63076213 37.87798284 -5.4375 36.3125 C-5.88996094 35.44238281 -6.34242187 34.57226562 -6.80859375 33.67578125 C-10.21472781 26.02593919 -9.5634177 18.26916828 -7.06640625 10.4765625 C-5.3502428 6.49104006 -2.82063919 3.26792501 0 0 Z " fill="#F3F4F4" transform="translate(35,182)"/>
<path d="M0 0 C0.6875 1.625 0.6875 1.625 1 4 C0.505 4.969375 0.01 5.93875 -0.5 6.9375 C-2.22241894 10.45410533 -2.00357547 11.35063464 -1 15 C-0.96227087 16.9996441 -0.95350094 19.00054061 -1 21 C-1.66 21 -2.32 21 -3 21 C-2.72285156 21.60328125 -2.44570312 22.2065625 -2.16015625 22.828125 C-1.79792969 23.62734375 -1.43570313 24.4265625 -1.0625 25.25 C-0.52302734 26.43335938 -0.52302734 26.43335938 0.02734375 27.640625 C0.90033279 29.75823698 1.51338508 31.76669362 2 34 C2.66 34 3.32 34 4 34 C4.66 35.65 5.32 37.3 6 39 C3.13302508 37.71480435 1.02392288 36.42870746 -1 34 C-1 33.34 -1 32.68 -1 32 C-1.99 31.67 -2.98 31.34 -4 31 C-5.43375475 27.45850321 -6.156634 23.721033 -7 20 C-7.309375 18.80375 -7.61875 17.6075 -7.9375 16.375 C-8.04617782 10.50639798 -5.57552282 5.79434543 -1.75 1.4375 C-1.1725 0.963125 -0.595 0.48875 0 0 Z " fill="#F9F9F9" transform="translate(73,31)"/>
<path d="M0 0 C5.33935997 5.20245331 6.17747951 7.81592255 6.5625 15.125 C6.60568359 15.87910156 6.64886719 16.63320312 6.69335938 17.41015625 C6.7994832 19.27321888 6.90025001 21.13658524 7 23 C10.85577028 17.21634458 8.96148196 9.61018848 8 3 C10 4 10 4 10.61328125 5.6015625 C11.14126508 8.87612886 11.17095193 12.0587672 11.1875 15.375 C11.20167969 16.66148437 11.21585937 17.94796875 11.23046875 19.2734375 C11.00714141 22.88452711 10.31293032 25.64761667 9 29 C7.02 29.33 5.04 29.66 3 30 C3 30.66 3 31.32 3 32 C0.525 32.495 0.525 32.495 -2 33 C-1.52392223 30.02451391 -0.68936594 28.54816864 1.0625 26 C4.01167111 21.00578323 3.66266252 15.61358935 3 10 C2.21893905 7.4604361 1.21565621 5.38066008 0 3 C0 2.01 0 1.02 0 0 Z " fill="#F5F5F6" transform="translate(284,156)"/>
<path d="M0 0 C0.598125 0.350625 1.19625 0.70125 1.8125 1.0625 C0.8225 1.3925 -0.1675 1.7225 -1.1875 2.0625 C-0.53067156 16.61125 4.86256071 29.76927784 12.640625 41.8984375 C13.8125 44.0625 13.8125 44.0625 13.8125 47.0625 C8.14922511 41.5565383 4.89239077 37.73209721 2.8125 30.0625 C2.19500703 28.85636415 1.55258382 27.66278503 0.890625 26.48046875 C-1.54184239 21.71725333 -2.4999892 16.92065453 -3.4375 11.6875 C-3.61023438 10.78644531 -3.78296875 9.88539063 -3.9609375 8.95703125 C-5.1875 2.4640377 -5.1875 2.4640377 -5.1875 0.0625 C-2.1875 -0.9375 -2.1875 -0.9375 0 0 Z " fill="#F0F1F1" transform="translate(78.1875,147.9375)"/>
<path d="M0 0 C-1.37009556 3.77793677 -3.12669421 6.86413097 -5.375 10.1875 C-10.24478023 17.72454575 -13.01399938 25.39735157 -15.19140625 34.06640625 C-15.45824219 34.70449219 -15.72507812 35.34257813 -16 36 C-17.485 36.495 -17.485 36.495 -19 37 C-18.30327133 24.92336975 -11.86134969 10.66112264 -3.91015625 1.625 C-2 0 -2 0 0 0 Z " fill="#EBEBEC" transform="translate(90,91)"/>
<path d="M0 0 C2.19064368 0.48297656 4.36882925 0.99471259 6.54296875 1.546875 C6.21296875 3.856875 5.88296875 6.166875 5.54296875 8.546875 C1.58296875 8.216875 -2.37703125 7.886875 -6.45703125 7.546875 C-6.78703125 6.556875 -7.11703125 5.566875 -7.45703125 4.546875 C-9.76703125 4.216875 -12.07703125 3.886875 -14.45703125 3.546875 C-9.87799924 -1.03215701 -6.23187273 -1.14928019 0 0 Z " fill="#F5F5F5" transform="translate(170.45703125,60.453125)"/>
<path d="M0 0 C2.46460494 3.6969074 2.32556513 5.90365862 2.5 10.3125 C2.69816607 15.29142255 3.24656895 19.33317581 5 24 C5.2475 24.969375 5.495 25.93875 5.75 26.9375 C7.20090667 30.49222134 9.14916318 32.71346519 11.7578125 35.484375 C13 37 13 37 13 39 C10.25416762 38.63106657 9.13469594 38.13498011 7.1484375 36.14453125 C6.27058594 34.99017578 6.27058594 34.99017578 5.375 33.8125 C4.78460938 33.05582031 4.19421875 32.29914063 3.5859375 31.51953125 C-0.55340335 24.94348483 -0.24557913 18.65655818 -0.125 11.125 C-0.11597656 10.05507812 -0.10695313 8.98515625 -0.09765625 7.8828125 C-0.07419342 5.25497561 -0.04136459 2.62760594 0 0 Z " fill="#EFF1F1" transform="translate(97,240)"/>
<path d="M0 0 C3.70568305 2.47045537 3.93298094 3.75186805 5 8 C5.83781903 16.76787352 5.85294092 25.38728224 1 33 C-1.48402548 35.89644956 -4.12116454 38.49848763 -7 41 C-7.66 40.34 -8.32 39.68 -9 39 C-8.34 39 -7.68 39 -7 39 C-6.67 38.01 -6.34 37.02 -6 36 C-5.34 36 -4.68 36 -4 36 C-3.731875 35.13375 -3.46375 34.2675 -3.1875 33.375 C-2 30 -2 30 -0.5 27.375 C1.99421138 21.76302441 4.01883489 15.38292751 2.1953125 9.328125 C1.11046466 6.9539468 1.11046466 6.9539468 -0.15234375 4.83984375 C-1 3 -1 3 0 0 Z " fill="#EBECED" transform="translate(239,226)"/>
<path d="M0 0 C0 0.66 0 1.32 0 2 C0.99 2.33 1.98 2.66 3 3 C3.625 5.375 3.625 5.375 4 8 C3.34 8.66 2.68 9.32 2 10 C0.46649739 11.96288334 -0.88515078 13.77030156 -2 16 C-5.00609963 14.99796679 -6.06176821 14.39971554 -8 12 C-8 11.01 -8 10.02 -8 9 C-8.66 9 -9.32 9 -10 9 C-10.36305732 3.55414013 -10.36305732 3.55414013 -8.8125 1.1875 C-5.88088183 -0.73321535 -3.21179775 -1.60589887 0 0 Z M-4 2 C-4.99 2.66 -5.98 3.32 -7 4 C-7.41666667 6.5 -7.41666667 6.5 -7 9 C-6.34 9.66 -5.68 10.32 -5 11 C-2.39719432 10.67958603 -2.39719432 10.67958603 0 10 C0.33 8.35 0.66 6.7 1 5 C-0.65 4.01 -2.3 3.02 -4 2 Z " fill="#F5F6F5" transform="translate(194,174)"/>
<path d="M0 0 C-0.33 0.66 -0.66 1.32 -1 2 C-2.65678253 2.37942133 -4.32611047 2.70507165 -6 3 C-9.56467552 4.17307563 -13.05709588 5.53618036 -16.5625 6.875 C-17.50802734 7.22691406 -18.45355469 7.57882813 -19.42773438 7.94140625 C-20.79575195 8.46154297 -20.79575195 8.46154297 -22.19140625 8.9921875 C-23.01842041 9.30526855 -23.84543457 9.61834961 -24.69750977 9.94091797 C-27.08220727 11.03781308 -28.96418379 12.35344846 -31 14 C-31.33 13.01 -31.66 12.02 -32 11 C-23.71477719 5.42340772 -10.31683481 -3.12220001 0 0 Z " fill="#F0F1F3" transform="translate(140,62)"/>
<path d="M0 0 C4.38482181 0.48720242 6.17367805 1.64374268 9 5 C13.10151896 10.42029644 15.14054902 13.4637638 15.125 20.4375 C15.12757813 21.59121094 15.13015625 22.74492188 15.1328125 23.93359375 C15 27 15 27 14 30 C13.34 29.67 12.68 29.34 12 29 C11.76693547 26.7991628 11.63933127 24.58680931 11.5625 22.375 C11.07718538 13.32020447 11.07718538 13.32020447 6.0234375 6.06640625 C4.59016863 4.8078645 3.13134573 3.57762198 1.64453125 2.3828125 C1.10183594 1.92648438 0.55914062 1.47015625 0 1 C0 0.67 0 0.34 0 0 Z " fill="#E9EAE9" transform="translate(262,64)"/>
<path d="M0 0 C0.66 0.33 1.32 0.66 2 1 C2.21003766 4.89269804 1.60076215 7.65215652 0.125 11.25 C-0.22304687 12.12140625 -0.57109375 12.9928125 -0.9296875 13.890625 C-2 16 -2 16 -4 17 C-4.268125 17.5775 -4.53625 18.155 -4.8125 18.75 C-6.37606409 21.71254248 -8.63981386 23.63981386 -11 26 C-12.29519995 28.16620544 -12.29519995 28.16620544 -13 30 C-14.32 29.67 -15.64 29.34 -17 29 C-16.33613281 28.24976563 -15.67226562 27.49953125 -14.98828125 26.7265625 C-7.8920007 18.56074043 -2.55337859 10.677765 0 0 Z " fill="#F0F0F0" transform="translate(192,149)"/>
<path d="M0 0 C5.34837357 0.32414385 8.56816236 3.14578234 12 7 C16.47969032 13.48402603 18.74192876 19.12882705 19 27 C18.34 27 17.68 27 17 27 C16.6596875 25.576875 16.6596875 25.576875 16.3125 24.125 C14.16491798 16.68408203 10.87172149 10.1377563 5 5 C3.33333333 3.33333333 1.66666667 1.66666667 0 0 Z " fill="#EAECED" transform="translate(193,7)"/>
<path d="M0 0 C9.95047998 2.25826496 17.19900019 8.76632285 23 17 C23 18.32 23 19.64 23 21 C19.26730376 19.75576792 18.94228629 18.60783668 16.9375 15.3125 C13.69273122 10.47986565 10.44244139 7.94994939 5.33203125 5.25390625 C3.03122162 4.0167875 1.04822824 2.61503974 -1 1 C-0.67 0.67 -0.34 0.34 0 0 Z " fill="#EFEFEE" transform="translate(167,107)"/>
<path d="M0 0 C1.60875 -0.020625 3.2175 -0.04125 4.875 -0.0625 C5.77992187 -0.07410156 6.68484375 -0.08570312 7.6171875 -0.09765625 C10 0 10 0 12 1 C11.629691 3.62582744 11.31016581 4.73573316 9.2578125 6.484375 C8.55398437 6.90203125 7.85015625 7.3196875 7.125 7.75 C6.07699219 8.39195313 6.07699219 8.39195313 5.0078125 9.046875 C3 10 3 10 0 10 C0 6.7 0 3.4 0 0 Z M2 3 C2.33 4.32 2.66 5.64 3 7 C3.99 5.68 4.98 4.36 6 3 C4.68 3 3.36 3 2 3 Z " fill="#EEEFF0" transform="translate(46,92)"/>
<path d="M0 0 C0.66 0 1.32 0 2 0 C1.54517978 7.04971336 -0.07306494 12.58959997 -3 19 C-3.51820313 20.14082031 -3.51820313 20.14082031 -4.046875 21.3046875 C-5.6971932 24.77035573 -7.15751446 27.366876 -10 30 C-10 25.66994813 -9.29510147 24.32035662 -7.25 20.625 C-3.76485022 13.93549449 -1.83223173 7.28581559 0 0 Z " fill="#EDEEEE" transform="translate(231,159)"/>
<path d="M0 0 C0.33 4.62 0.66 9.24 1 14 C2.65 13.67 4.3 13.34 6 13 C6 13.66 6 14.32 6 15 C0.58823529 19 0.58823529 19 -2 19 C-2.84689607 14.40256421 -3.3239332 9.82507302 -3.71875 5.171875 C-3.88462714 2.9568754 -3.88462714 2.9568754 -5 1 C-3 0 -3 0 0 0 Z " fill="#E5E4E5" transform="translate(43,93)"/>
<path d="M0 0 C2.97 0 5.94 0 9 0 C9 3.96 9 7.92 9 12 C7.68 12.33 6.36 12.66 5 13 C2.37613513 9.93882432 2 9.26826873 2 5 C2.99 5.33 3.98 5.66 5 6 C5.33 5.01 5.66 4.02 6 3 C5.38125 3.185625 4.7625 3.37125 4.125 3.5625 C2 4 2 4 0 3 C0 2.01 0 1.02 0 0 Z " fill="#EFF0EF" transform="translate(198,36)"/>
<path d="M0 0 C0.66 0.33 1.32 0.66 2 1 C1.125 7.75 1.125 7.75 0 10 C0.36436441 12.51557188 0.79604553 14.95337737 1.3125 17.4375 C1.44333984 18.11876953 1.57417969 18.80003906 1.70898438 19.50195312 C2.39499838 22.88562608 3.060928 25.091392 5 28 C4.67 28.99 4.34 29.98 4 31 C3.18357746 29.73168307 2.37200895 28.46024069 1.5625 27.1875 C1.11003906 26.47980469 0.65757813 25.77210937 0.19140625 25.04296875 C-2.12686733 21.06769962 -2.16342633 17.70853598 -2.1875 13.1875 C-2.20167969 11.98480469 -2.21585938 10.78210938 -2.23046875 9.54296875 C-2.00124672 6.01916575 -1.27030979 3.27870472 0 0 Z " fill="#DDDDDD" transform="translate(66,35)"/>
<path d="M0 0 C0.56203125 0.22171875 1.1240625 0.4434375 1.703125 0.671875 C1.828125 6.421875 1.828125 6.421875 0.703125 8.671875 C-0.616875 8.341875 -1.936875 8.011875 -3.296875 7.671875 C-2.636875 6.021875 -1.976875 4.371875 -1.296875 2.671875 C-2.286875 3.166875 -2.286875 3.166875 -3.296875 3.671875 C-3.95242619 6.19920735 -3.95242619 6.19920735 -4.296875 8.671875 C-6.606875 8.671875 -8.916875 8.671875 -11.296875 8.671875 C-11.296875 7.681875 -11.296875 6.691875 -11.296875 5.671875 C-9.46875 4.03125 -9.46875 4.03125 -7.046875 2.421875 C-5.86351562 1.60976562 -5.86351562 1.60976562 -4.65625 0.78125 C-2.296875 -0.328125 -2.296875 -0.328125 0 0 Z " fill="#EBECED" transform="translate(261.296875,188.328125)"/>
<path d="M0 0 C3.465 1.485 3.465 1.485 7 3 C6.87747396 7.04335927 5.38486072 8.88838021 2.625 11.625 C1.42231466 12.756036 0.21415263 13.88128295 -1 15 C-1.50789062 15.54398438 -2.01578125 16.08796875 -2.5390625 16.6484375 C-4 18 -4 18 -7 19 C-5.75821256 14.30880299 -3.25937292 12.27644071 0.44140625 9.4296875 C2.27692287 7.97814034 2.27692287 7.97814034 3 5 C2.505 4.54625 2.01 4.0925 1.5 3.625 C0 2 0 2 0 0 Z " fill="#EAEBED" transform="translate(202,81)"/>
<path d="M0 0 C3 0 3 0 4.625 1.25 C6.2147105 3.27326791 6.84387203 4.42388856 7 7 C5.6875 9.25 5.6875 9.25 4 11 C3.34 11 2.68 11 2 11 C1.67 11.99 1.34 12.98 1 14 C0.01 14.33 -0.98 14.66 -2 15 C-2.21755666 9.5610835 -2.10428384 5.12919186 0 0 Z M2 3 C1.67 4.98 1.34 6.96 1 9 C1.99 8.67 2.98 8.34 4 8 C4 6.35 4 4.7 4 3 C3.34 3 2.68 3 2 3 Z " fill="#EBEAEB" transform="translate(260,99)"/>
<path d="M0 0 C2.37008799 0.84646 3.56976321 1.83218387 5.328125 3.6171875 C5.84890625 4.13023438 6.3696875 4.64328125 6.90625 5.171875 C8.078125 6.7421875 8.078125 6.7421875 8.078125 9.7421875 C5.438125 9.4121875 2.798125 9.0821875 0.078125 8.7421875 C0.078125 7.7521875 0.078125 6.7621875 0.078125 5.7421875 C0.738125 5.7421875 1.398125 5.7421875 2.078125 5.7421875 C1.088125 4.7521875 0.098125 3.7621875 -0.921875 2.7421875 C-0.921875 4.0621875 -0.921875 5.3821875 -0.921875 6.7421875 C-2.571875 6.7421875 -4.221875 6.7421875 -5.921875 6.7421875 C-5.32003751 4.72173308 -4.64881404 2.72107711 -3.921875 0.7421875 C-1.921875 -0.2578125 -1.921875 -0.2578125 0 0 Z " fill="#E9E8EC" transform="translate(114.921875,32.2578125)"/>
<path d="M0 0 C0.99 0.33 1.98 0.66 3 1 C3 5.62 3 10.24 3 15 C-0.317124 10.577168 -0.30466674 9.28089024 0 4 C-1.36125 5.0209375 -1.36125 5.0209375 -2.75 6.0625 C-6 8 -6 8 -8.375 7.75 C-8.91125 7.5025 -9.4475 7.255 -10 7 C-6.81516089 4.36113331 -3.7101179 1.85505895 0 0 Z " fill="#F1F2F4" transform="translate(265,178)"/>
<path d="M0 0 C1 3 1 3 0 6 C-0.89156437 13.0051486 1.3076028 17.25286524 4.6875 23.36328125 C6 26 6 26 6 29 C2.33523078 26.32570894 -0.07329666 24.12626351 -2 20 C-2.39879566 17.11370286 -2.37454877 14.28384614 -2.3125 11.375 C-2.31572266 10.611875 -2.31894531 9.84875 -2.32226562 9.0625 C-2.28503924 5.20449232 -2.18383471 3.27575206 0 0 Z " fill="#E4E5E4" transform="translate(21,108)"/>
<path d="M0 0 C-1 2 -1 2 -2.890625 2.74609375 C-3.66921875 2.97425781 -4.4478125 3.20242187 -5.25 3.4375 C-9.67536995 4.83535495 -13.35586547 6.35586547 -16.6875 9.6875 C-17.120625 10.120625 -17.55375 10.55375 -18 11 C-18.66 11 -19.32 11 -20 11 C-19.61712558 8.43640603 -19.2228978 7.22236582 -17.36328125 5.3671875 C-7.11207369 -2.09178638 -7.11207369 -2.09178638 0 0 Z " fill="#E9EAEA" transform="translate(248,56)"/>
<path d="M0 0 C0.99 0.33 1.98 0.66 3 1 C2.01 1.495 2.01 1.495 1 2 C0.67 2.99 0.34 3.98 0 5 C-1.4375 6.6875 -1.4375 6.6875 -3 8 C-3.66 8 -4.32 8 -5 8 C-5.33 8.99 -5.66 9.98 -6 11 C-7.84765625 12.82421875 -7.84765625 12.82421875 -10.0625 14.6875 C-10.79597656 15.31011719 -11.52945313 15.93273437 -12.28515625 16.57421875 C-13.13400391 17.27998047 -13.13400391 17.27998047 -14 18 C-14.66 17.34 -15.32 16.68 -16 16 C-10.72 10.72 -5.44 5.44 0 0 Z " fill="#E9E9EA" transform="translate(52,165)"/>
<path d="M0 0 C5.92359932 5.77171216 5.92359932 5.77171216 6.203125 10.265625 C6.21859375 11.58046875 6.2340625 12.8953125 6.25 14.25 C6.27578125 15.55453125 6.3015625 16.8590625 6.328125 18.203125 C5.9843657 22.18091119 5.01249023 24.58935866 3 28 C1.875 24.25 1.875 24.25 3 22 C3.56275183 14.86820281 3.25287682 9.37021711 0 3 C0 2.01 0 1.02 0 0 Z " fill="#ECECEC" transform="translate(284,156)"/>
<path d="M0 0 C4.73116319 2.3655816 8.09701191 5.61778231 11 10 C11.875 13.4375 11.875 13.4375 12 16 C11.01 16 10.02 16 9 16 C8.7525 15.46375 8.505 14.9275 8.25 14.375 C5.76351864 9.65068542 2.91576392 5.6360665 -1 2 C-0.67 1.34 -0.34 0.68 0 0 Z " fill="#F7F9F8" transform="translate(266,61)"/>
<path d="M0 0 C0.66 0.33 1.32 0.66 2 1 C1.71703381 3.73032273 1.42396118 6.45892148 1.125 9.1875 C1.04636719 9.95642578 0.96773437 10.72535156 0.88671875 11.51757812 C0.42471896 15.65780704 -0.1839193 19.19233501 -2 23 C-3.4571334 20.65450274 -4.03332363 19.3866798 -3.79296875 16.59765625 C-3.59316406 15.76105469 -3.39335938 14.92445313 -3.1875 14.0625 C-2.99542969 13.22847656 -2.80335937 12.39445313 -2.60546875 11.53515625 C-2.40566406 10.69855469 -2.20585938 9.86195313 -2 9 C-1.66045012 7.33458871 -1.32529466 5.66825426 -1 4 C-1.66 4 -2.32 4 -3 4 C-3 3.01 -3 2.02 -3 1 C-2.01 0.67 -1.02 0.34 0 0 Z " fill="#EDF0F0" transform="translate(57,161)"/>
<path d="M0 0 C0.66 0.33 1.32 0.66 2 1 C1.814375 1.61875 1.62875 2.2375 1.4375 2.875 C0.76313824 5.04160178 0.76313824 5.04160178 2 7 C1.75187588 8.82242885 1.4287272 10.63508769 1.0625 12.4375 C0.46648873 15.40176799 0 17.97102783 0 21 C-0.99 21 -1.98 21 -3 21 C-3.37369729 13.52605426 -2.04061541 7.17859349 0 0 Z " fill="#EEF0F0" transform="translate(253,107)"/>
<path d="M0 0 C1.98 0.99 1.98 0.99 4 2 C4 2.66 4 3.32 4 4 C4.598125 4.0825 5.19625 4.165 5.8125 4.25 C8.6788626 5.23275289 9.56592275 6.35827876 11 9 C11 11.0625 11 11.0625 10 13 C7.4375 14.75 7.4375 14.75 5 16 C5.433125 14.453125 5.433125 14.453125 5.875 12.875 C6.39870111 9.16440992 6.39870111 9.16440992 4.73046875 7.3046875 C3.63677681 6.2852744 2.5089245 5.30108684 1.34765625 4.359375 C0 3 0 3 0 0 Z " fill="#EFF0F0" transform="translate(199,192)"/>
<path d="M0 0 C4.62366596 1.95616637 8.79274963 4.96962437 11.375 9.3125 C11.58125 9.869375 11.7875 10.42625 12 11 C10.375 12.125 10.375 12.125 8 13 C4.75 12.125 4.75 12.125 2 11 C2 10.34 2 9.68 2 9 C3.65 8.67 5.3 8.34 7 8 C6.01 7.34 5.02 6.68 4 6 C1.8125 4 1.8125 4 0 2 C0 1.34 0 0.68 0 0 Z " fill="#EBEBED" transform="translate(126,37)"/>
<path d="M0 0 C-1.39506426 3.25042891 -2.96783394 5.07371792 -5.6875 7.3125 C-9.67494857 10.68032676 -13.36251736 14.26021316 -17 18 C-17.66 17.34 -18.32 16.68 -19 16 C-18.34 16 -17.68 16 -17 16 C-16.79375 15.2575 -16.5875 14.515 -16.375 13.75 C-14.58831726 10.17663452 -12.32993775 9.1546656 -9 7 C-7.21997695 5.07932118 -5.63776558 3.04720698 -4 1 C-2 0 -2 0 0 0 Z " fill="#F0F3F3" transform="translate(240,63)"/>
<path d="M0 0 C0.598125 0.350625 1.19625 0.70125 1.8125 1.0625 C0.8225 1.3925 -0.1675 1.7225 -1.1875 2.0625 C-0.6493629 7.75301363 -0.0474867 13.41115884 0.8125 19.0625 C0.1525 19.3925 -0.5075 19.7225 -1.1875 20.0625 C-3.17447306 13.37677305 -4.61728625 7.01910771 -5.1875 0.0625 C-2.1875 -0.9375 -2.1875 -0.9375 0 0 Z " fill="#E2E2E3" transform="translate(78.1875,147.9375)"/>
<path d="M0 0 C0.66 0 1.32 0 2 0 C2.29132813 0.65226562 2.58265625 1.30453125 2.8828125 1.9765625 C4.93062711 6.3426578 6.76506623 10.10914765 10.3125 13.4375 C11.199375 14.283125 12.08625 15.12875 13 16 C13 16.99 13 17.98 13 19 C12.34 19 11.68 19 11 19 C11 18.34 11 17.68 11 17 C9.68 16.34 8.36 15.68 7 15 C7 14.34 7 13.68 7 13 C6.34 13 5.68 13 5 13 C4.15930585 11.39967863 3.32768495 9.79458829 2.5 8.1875 C1.80390625 6.84751953 1.80390625 6.84751953 1.09375 5.48046875 C0 3 0 3 0 0 Z " fill="#EAEAEB" transform="translate(70,52)"/>
<path d="M0 0 C-0.66 0.66 -1.32 1.32 -2 2 C-2.99 2 -3.98 2 -5 2 C-5 2.66 -5 3.32 -5 4 C-6.74814612 5.39138161 -8.59672568 6.56294846 -10.46875 7.78125 C-10.9740625 8.1834375 -11.479375 8.585625 -12 9 C-12 9.66 -12 10.32 -12 11 C-13.65 11.66 -15.3 12.32 -17 13 C-15.64101764 8.77533744 -13.86283346 6.6105921 -10.5 3.75 C-9.30890625 2.72132812 -9.30890625 2.72132812 -8.09375 1.671875 C-4.91606113 -0.86553328 -3.83568293 -1.15070488 0 0 Z " fill="#F0F1F0" transform="translate(171,7)"/>
<path d="M0 0 C2 2 2 2 2 6 C2.99 5.67 3.98 5.34 5 5 C5 4.34 5 3.68 5 3 C6.32 2.67 7.64 2.34 9 2 C8.37344168 4.92393881 7.5838192 7.44829129 6 10 C5.01 10.33 4.02 10.66 3 11 C1.76302083 9.50260417 0.52604167 8.00520833 -0.7109375 6.5078125 C-1.75250992 5.28948839 -2.86660097 4.13339903 -4 3 C-2 1 -2 1 0 0 Z " fill="#F1F4F4" transform="translate(191,248)"/>
<path d="M0 0 C0.99 0.33 1.98 0.66 3 1 C3 1.66 3 2.32 3 3 C4.32 3.33 5.64 3.66 7 4 C7 5.32 7 6.64 7 8 C5.35 8.66 3.7 9.32 2 10 C2.33 10.66 2.66 11.32 3 12 C2.34 12 1.68 12 1 12 C0.67 12.66 0.34 13.32 0 14 C-0.66 13.67 -1.32 13.34 -2 13 C-0.80100302 9.9168649 0.47700477 6.93720508 2 4 C0.68 3.01 -0.64 2.02 -2 1 C-1.34 0.67 -0.68 0.34 0 0 Z " fill="#F2F3F5" transform="translate(105,24)"/>
<path d="M0 0 C0.66 0 1.32 0 2 0 C2 0.66 2 1.32 2 2 C2.66 2 3.32 2 4 2 C4.66 4.31 5.32 6.62 6 9 C6.66 9 7.32 9 8 9 C8 8.34 8 7.68 8 7 C8.66 7 9.32 7 10 7 C10 8.98 10 10.96 10 13 C7.37672817 12.61791476 6.19530378 12.19575173 4.296875 10.29296875 C3.78640625 9.59816406 3.2759375 8.90335938 2.75 8.1875 C2.22921875 7.50042969 1.7084375 6.81335937 1.171875 6.10546875 C0 4 0 4 0 0 Z " fill="#EDEDEE" transform="translate(202,52)"/>
<path d="M0 0 C0.88685086 2.43343224 1.21645964 3.53100412 0.109375 5.9296875 C-0.33921875 6.57164062 -0.7878125 7.21359375 -1.25 7.875 C-3.44984777 11.14719696 -5.30464925 14.43084052 -7 18 C-7.33 18 -7.66 18 -8 18 C-7.73661122 10.75680845 -5.19413189 5.19413189 0 0 Z " fill="#DFDFE0" transform="translate(35,182)"/>
<path d="M0 0 C0.99 0 1.98 0 3 0 C2.68985608 2.08368538 2.3767948 4.16693668 2.0625 6.25 C1.88847656 7.41015625 1.71445312 8.5703125 1.53515625 9.765625 C1.1272264 12.23106961 0.66098697 14.59424562 0 17 C-0.66 17 -1.32 17 -2 17 C-2.25706972 11.08739655 -1.2982126 5.76081841 0 0 Z " fill="#E8EBEB" transform="translate(256,89)"/>
<path d="M0 0 C0.66 0 1.32 0 2 0 C3.2890625 1.6796875 3.2890625 1.6796875 4.625 3.875 C5.29402344 4.95394531 5.29402344 4.95394531 5.9765625 6.0546875 C7 8 7 8 7 10 C7.639375 10.28875 8.27875 10.5775 8.9375 10.875 C11 12 11 12 12 14 C9.21788056 13.62403791 7.4120716 13.32681541 5.1875 11.5625 C4 10 4 10 4 8 C3.34 7.67 2.68 7.34 2 7 C0 2.66666667 0 2.66666667 0 0 Z " fill="#EEF0F1" transform="translate(33,211)"/>
<path d="M0 0 C5.57142857 5.14285714 5.57142857 5.14285714 6 9 C2.01803543 10.05404945 -0.98195309 9.84098656 -5 9 C-5 8.34 -5 7.68 -5 7 C-2.36 7 0.28 7 3 7 C1.68 5.02 0.36 3.04 -1 1 C-0.67 0.67 -0.34 0.34 0 0 Z " fill="#EFF1F2" transform="translate(115,249)"/>
<path d="M0 0 C0.66 0 1.32 0 2 0 C2.3690205 9.41002278 2.3690205 9.41002278 0 14 C-2 13 -2 13 -3 11 C-2.6953125 8.65234375 -2.6953125 8.65234375 -2.125 5.9375 C-1.94195312 5.03902344 -1.75890625 4.14054688 -1.5703125 3.21484375 C-1 1 -1 1 0 0 Z " fill="#F0F1F3" transform="translate(49,176)"/>
<path d="M0 0 C4.95 0 9.9 0 15 0 C15.33 0.99 15.66 1.98 16 3 C13.70890403 3.08075665 11.41700733 3.13907731 9.125 3.1875 C7.21074219 3.23970703 7.21074219 3.23970703 5.2578125 3.29296875 C4.18273438 3.19628906 3.10765625 3.09960938 2 3 C1.34 2.01 0.68 1.02 0 0 Z " fill="#EFEFEF" transform="translate(49,87)"/>
<path d="M0 0 C4.63720719 3.27530896 8.68542782 6.30435607 12 11 C11.67 11.66 11.34 12.32 11 13 C5.125 9.375 5.125 9.375 4 6 C1.50240018 4.30117552 1.50240018 4.30117552 -1 3 C-0.67 2.01 -0.34 1.02 0 0 Z " fill="#EFEEF0" transform="translate(114,24)"/>
<path d="M0 0 C0.66 0.66 1.32 1.32 2 2 C1.01 2.495 1.01 2.495 0 3 C0.33 3.66 0.66 4.32 1 5 C-3.29 4.67 -7.58 4.34 -12 4 C-8.03460536 0.03460536 -5.50371024 -0.40026984 0 0 Z " fill="#FAFCFB" transform="translate(168,60)"/>
<path d="M0 0 C1.29813806 3.58220375 0.69626309 5.34740268 -0.875 8.75 C-2.82112185 13.27305561 -3.63735016 17.10422715 -4 22 C-4.33 22 -4.66 22 -5 22 C-5.054138 19.75026553 -5.09285491 17.50015617 -5.125 15.25 C-5.14820313 13.99703125 -5.17140625 12.7440625 -5.1953125 11.453125 C-5.01537302 8.27179508 -4.68998582 6.63478104 -3 4 C-2.34 4 -1.68 4 -1 4 C-0.67 2.68 -0.34 1.36 0 0 Z " fill="#F2F3F3" transform="translate(161,17)"/>
<path d="M0 0 C10.68030439 2.55658293 10.68030439 2.55658293 14 6.1875 C14.33 6.785625 14.66 7.38375 15 8 C14.01 8.495 14.01 8.495 13 9 C10.71741367 7.92325298 8.5643566 6.80453884 6.375 5.5625 C5.76398438 5.22412109 5.15296875 4.88574219 4.5234375 4.53710938 C3.011647 3.69853808 1.50529601 2.85017423 0 2 C0 1.34 0 0.68 0 0 Z " fill="#EBEBEB" transform="translate(183,70)"/>
<path d="M0 0 C1.65 0.33 3.3 0.66 5 1 C4.54917531 2.46067199 4.08906463 3.91848032 3.625 5.375 C3.36976562 6.18710938 3.11453125 6.99921875 2.8515625 7.8359375 C2 10 2 10 0 12 C-0.95585284 8.2827945 -0.90395705 5.71626787 0 2 C0 1.34 0 0.68 0 0 Z " fill="#EEEEED" transform="translate(113,118)"/>
<path d="M0 0 C0.3403125 1.670625 0.3403125 1.670625 0.6875 3.375 C1.60623658 7.16038373 1.60623658 7.16038373 4.625 8.4375 C5.40875 8.623125 6.1925 8.80875 7 9 C7 9.33 7 9.66 7 10 C3.29706315 10.33663062 1.60465619 10.47736015 -1.375 8.125 C-3 6 -3 6 -3 4 C-3.66 3.67 -4.32 3.34 -5 3 C-2.25 0 -2.25 0 0 0 Z " fill="#F0F0F1" transform="translate(186,105)"/>
<path d="M0 0 C1.98 0 3.96 0 6 0 C6.33 0.66 6.66 1.32 7 2 C5.68 2.33 4.36 2.66 3 3 C3.309375 4.1446875 3.309375 4.1446875 3.625 5.3125 C4 8 4 8 2 11 C0.57741188 7.17679443 -0.24042276 4.08718695 0 0 Z " fill="#EDEEF0" transform="translate(102,256)"/>
<path d="M0 0 C2 1 2 1 2.6171875 2.58984375 C3.14775952 5.93028185 3.13160976 9.18160548 3.125 12.5625 C3.12886719 13.23474609 3.13273437 13.90699219 3.13671875 14.59960938 C3.13061073 17.67499752 2.97991229 20.06026313 2 23 C1.34 23 0.68 23 0 23 C0.165 22.195625 0.33 21.39125 0.5 20.5625 C1.47817769 13.59298394 1.00934766 6.93926516 0 0 Z " fill="#E6E6E6" transform="translate(292,159)"/>
<path d="M0 0 C0.66 0.33 1.32 0.66 2 1 C0.71937515 2.7074998 -0.61767557 4.37373596 -2 6 C-2.66 6 -3.32 6 -4 6 C-4.268125 6.969375 -4.53625 7.93875 -4.8125 8.9375 C-5.204375 9.948125 -5.59625 10.95875 -6 12 C-6.99 12.33 -7.98 12.66 -9 13 C-8.56572515 8.07821839 -6.30904303 5.54540325 -3 2 C-2.01 1.34 -1.02 0.68 0 0 Z " fill="#E6E6E6" transform="translate(76,23)"/>
<path d="M0 0 C3.3529984 1.17808052 5.7552529 2.19406612 8 5 C8.33 5.99 8.66 6.98 9 8 C9.66 8.33 10.32 8.66 11 9 C10.67 9.99 10.34 10.98 10 12 C8.33333333 10.33333333 6.66666667 8.66666667 5 7 C4.071875 6.113125 3.14375 5.22625 2.1875 4.3125 C0 2 0 2 0 0 Z " fill="#E2E3E3" transform="translate(225,219)"/>
<path d="M0 0 C2.70931419 0.15481795 4.46584039 0.48172081 6.4453125 2.40234375 C7.67679642 3.89771708 8.8429837 5.4462924 10 7 C9.67 7.66 9.34 8.32 9 9 C5.25846263 7.75282088 3.62482484 5.90112219 1 3 C0.67 2.01 0.34 1.02 0 0 Z " fill="#EDEEEF" transform="translate(280,146)"/>
<path d="M0 0 C1.65 0 3.3 0 5 0 C5 0.99 5 1.98 5 3 C4.34 3 3.68 3 3 3 C3.33 4.98 3.66 6.96 4 9 C3.34 9 2.68 9 2 9 C-1.11450382 4.84732824 -1.11450382 4.84732824 -0.6875 1.6875 C-0.460625 1.130625 -0.23375 0.57375 0 0 Z " fill="#EDEEED" transform="translate(190,117)"/>
<path d="M0 0 C0.66 0.66 1.32 1.32 2 2 C-1.63 5.63 -5.26 9.26 -9 13 C-9.66 12.34 -10.32 11.68 -11 11 C-10.38125 10.7525 -9.7625 10.505 -9.125 10.25 C-6.55750184 8.73970696 -6.28184271 7.63908792 -5 5 C-3.37253306 3.29503463 -1.71108689 1.62102968 0 0 Z " fill="#EFEFEF" transform="translate(87,214)"/>
<path d="M0 0 C3 1 3 1 4.75 3.125 C6.34903493 6.80278035 5.83249295 9.14025994 5 13 C4.34 13 3.68 13 3 13 C3.0928125 11.6696875 3.0928125 11.6696875 3.1875 10.3125 C2.97896309 6.62834788 2.0126182 5.01892731 0 2 C0 1.34 0 0.68 0 0 Z " fill="#EFF0F2" transform="translate(197,172)"/>
<path d="M0 0 C0.66 0 1.32 0 2 0 C2 0.66 2 1.32 2 2 C2.99 2 3.98 2 5 2 C5.28875 2.804375 5.5775 3.60875 5.875 4.4375 C6.73262568 7.1326468 6.73262568 7.1326468 9 8 C7.35 8.66 5.7 9.32 4 10 C3.71125 9.21625 3.4225 8.4325 3.125 7.625 C2.15087746 4.90328368 2.15087746 4.90328368 0 3 C0 2.01 0 1.02 0 0 Z " fill="#ECEDEF" transform="translate(86,80)"/>
<path d="M0 0 C1.66666667 1.66666667 3.33333333 3.33333333 5 5 C5.5775 5.53625 6.155 6.0725 6.75 6.625 C8 8 8 8 9 11 C5.49304707 10.4346089 3.97267387 9.31277274 1.6875 6.625 C1.15511719 6.01914063 0.62273437 5.41328125 0.07421875 4.7890625 C-0.28027344 4.19867188 -0.63476562 3.60828125 -1 3 C-0.67 2.01 -0.34 1.02 0 0 Z " fill="#EDEEF0" transform="translate(71,63)"/>
<path d="M0 0 C0.66 0.33 1.32 0.66 2 1 C1.01 2.485 1.01 2.485 0 4 C-0.66 4 -1.32 4 -2 4 C-2.268125 4.70125 -2.53625 5.4025 -2.8125 6.125 C-4.0681449 9.1649824 -5.50235123 12.0727774 -7 15 C-7.66 14.01 -8.32 13.02 -9 12 C-8.06692579 10.55962331 -7.12834923 9.12281015 -6.1875 7.6875 C-5.66542969 6.88699219 -5.14335938 6.08648437 -4.60546875 5.26171875 C-3.19610151 3.2762598 -1.77903343 1.6508148 0 0 Z " fill="#DFE0E0" transform="translate(79,28)"/>
<path d="M0 0 C2.72869407 0.03287583 5.2966618 0.56397771 8 1 C7.6875 2.875 7.6875 2.875 7 5 C6.01 5.66 5.02 6.32 4 7 C3.67 6.34 3.34 5.68 3 5 C3.33 4.34 3.66 3.68 4 3 C1.03 2.505 1.03 2.505 -2 2 C-1.34 1.34 -0.68 0.68 0 0 Z " fill="#EEF0F1" transform="translate(202,246)"/>
<path d="M0 0 C0.99 0.66 1.98 1.32 3 2 C2.34 4.31 1.68 6.62 1 9 C-0.65 7.35 -2.3 5.7 -4 4 C-3.67 3.01 -3.34 2.02 -3 1 C-2.01 0.67 -1.02 0.34 0 0 Z " fill="#FAFCFC" transform="translate(49,189)"/>
<path d="M0 0 C0.7425 0.185625 1.485 0.37125 2.25 0.5625 C4.94990963 0.99203108 6.44631077 0.85122974 9 0 C9 0.66 9 1.32 9 2 C3.58823529 6 3.58823529 6 1 6 C0.67 4.02 0.34 2.04 0 0 Z " fill="#E8ECEC" transform="translate(40,106)"/>
<path d="M0 0 C5.12890273 3.8361382 7.92669153 6.90203392 10 13 C9.01 12.67 8.02 12.34 7 12 C6.5 10 6.5 10 6 8 C5.01 7.67 4.02 7.34 3 7 C1.60287726 5.04402816 0.26220093 3.04563599 -1 1 C-0.67 0.67 -0.34 0.34 0 0 Z " fill="#DDDFDF" transform="translate(270,61)"/>
<path d="M0 0 C2 1 2 1 3.0703125 3.72265625 C3.41835938 4.82480469 3.76640625 5.92695313 4.125 7.0625 C4.47820313 8.16722656 4.83140625 9.27195313 5.1953125 10.41015625 C5.46085937 11.26480469 5.72640625 12.11945313 6 13 C5.01 13.495 5.01 13.495 4 14 C0.75099398 9.02495953 -0.49940808 6.11774896 0 0 Z " fill="#E5E6E7" transform="translate(28,209)"/>
<path d="M0 0 C3 0 3 0 4.82421875 1.64453125 C5.43910156 2.35996094 6.05398437 3.07539063 6.6875 3.8125 C7.31011719 4.52019531 7.93273437 5.22789062 8.57421875 5.95703125 C10 8 10 8 10 11 C8.8944811 10.06409496 7.79064547 9.12620142 6.6875 8.1875 C6.07261719 7.66542969 5.45773438 7.14335937 4.82421875 6.60546875 C1.48047722 3.6626898 1.48047722 3.6626898 0 2 C0 1.34 0 0.68 0 0 Z " fill="#EDEDEE" transform="translate(215,209)"/>
<path d="M0 0 C3.58620225 1.65517027 6.81530529 3.66455721 10 6 C10.33 6.99 10.66 7.98 11 9 C7.66864109 8.40300869 5.78724333 7.27987719 3.25 5.0625 C2.63640625 4.53785156 2.0228125 4.01320312 1.390625 3.47265625 C0 2 0 2 0 0 Z " fill="#EFF0F2" transform="translate(33,222)"/>
<path d="M0 0 C0.99 0.33 1.98 0.66 3 1 C1.73742767 2.17560179 0.46462916 3.34022865 -0.8125 4.5 C-1.87404297 5.47453125 -1.87404297 5.47453125 -2.95703125 6.46875 C-5 8 -5 8 -8 8 C-6.49860488 3.79609368 -3.82724957 2.10889262 0 0 Z " fill="#F3F3F3" transform="translate(250,188)"/>
<path d="M0 0 C-0.185625 0.61875 -0.37125 1.2375 -0.5625 1.875 C-1.23686176 4.04160178 -1.23686176 4.04160178 0 6 C-0.27942455 7.67654729 -0.60828247 9.34608154 -1 11 C-1.66 11 -2.32 11 -3 11 C-3 7.7 -3 4.4 -3 1 C-4.65 1 -6.3 1 -8 1 C-8 0.67 -8 0.34 -8 0 C-4.71303767 -0.79953138 -3.28976808 -1.09658936 0 0 Z " fill="#EBEBEB" transform="translate(235,147)"/>
<path d="M0 0 C1.98 0.495 1.98 0.495 4 1 C3.5359375 2.051875 3.5359375 2.051875 3.0625 3.125 C1.96697322 6.08936657 1.43577008 8.87698108 1 12 C0.34 11.34 -0.32 10.68 -1 10 C-0.9765625 7.6171875 -0.9765625 7.6171875 -0.625 4.875 C-0.51414063 3.96492188 -0.40328125 3.05484375 -0.2890625 2.1171875 C-0.19367188 1.41851562 -0.09828125 0.71984375 0 0 Z " fill="#EFF2F3" transform="translate(150,256)"/>
<path d="M0 0 C1.32 0.33 2.64 0.66 4 1 C4.33 2.65 4.66 4.3 5 6 C6.32 6.33 7.64 6.66 9 7 C9 7.99 9 8.98 9 10 C6.51339545 9.6121322 5.27654781 9.29037521 3.515625 7.44140625 C3.09796875 6.82136719 2.6803125 6.20132813 2.25 5.5625 C1.82203125 4.94503906 1.3940625 4.32757813 0.953125 3.69140625 C0 2 0 2 0 0 Z " fill="#ECEEF0" transform="translate(102,241)"/>
<path d="M0 0 C-3.44615385 4.8 -3.44615385 4.8 -6.25 5.8125 C-7.11625 5.9053125 -7.11625 5.9053125 -8 6 C-8 5.01 -8 4.02 -8 3 C-8.66 2.67 -9.32 2.34 -10 2 C-8.71211992 1.46987262 -7.41953322 0.9511671 -6.125 0.4375 C-5.40570313 0.14746094 -4.68640625 -0.14257812 -3.9453125 -0.44140625 C-2 -1 -2 -1 0 0 Z " fill="#F2F2F2" transform="translate(218,195)"/>
<path d="M0 0 C4.12751449 0.60698743 7.3321148 2.03810791 11 4 C10.67 4.66 10.34 5.32 10 6 C5.8333396 5.52651586 3.07115285 4.95303159 0 2 C0 1.34 0 0.68 0 0 Z " fill="#EFF0F0" transform="translate(26,136)"/>
<path d="M0 0 C2.625 0.375 2.625 0.375 5 1 C4.360625 1.12375 3.72125 1.2475 3.0625 1.375 C2.381875 1.58125 1.70125 1.7875 1 2 C0.67 2.66 0.34 3.32 0 4 C-2.06640625 4.4140625 -2.06640625 4.4140625 -4.5625 4.625 C-5.38878906 4.69976562 -6.21507812 4.77453125 -7.06640625 4.8515625 C-8.02353516 4.92503906 -8.02353516 4.92503906 -9 5 C-9.33 4.01 -9.66 3.02 -10 2 C-8.72125 2.04125 -7.4425 2.0825 -6.125 2.125 C-3.98128508 2.24212873 -3.98128508 2.24212873 -2 2 C-1.34 1.34 -0.68 0.68 0 0 Z " fill="#F1F1F3" transform="translate(143,64)"/>
<path d="M0 0 C0.66 0 1.32 0 2 0 C2 4.62 2 9.24 2 14 C-1 10 -1 10 -1.07421875 7.421875 C-0.94660156 6.54015625 -0.81898438 5.6584375 -0.6875 4.75 C-0.56761719 3.85796875 -0.44773437 2.9659375 -0.32421875 2.046875 C-0.21722656 1.37140625 -0.11023438 0.6959375 0 0 Z " fill="#E0E5E6" transform="translate(266,179)"/>
<path d="M0 0 C0.66 0 1.32 0 2 0 C1.85892253 1.45880109 1.71197585 2.91703551 1.5625 4.375 C1.48128906 5.18710938 1.40007812 5.99921875 1.31640625 6.8359375 C1 9 1 9 0 11 C-0.66 11 -1.32 11 -2 11 C-1.85892253 9.54119891 -1.71197585 8.08296449 -1.5625 6.625 C-1.48128906 5.81289062 -1.40007812 5.00078125 -1.31640625 4.1640625 C-1 2 -1 2 0 0 Z " fill="#DFE2E1" transform="translate(231,159)"/>
<path d="M0 0 C0.66 0.33 1.32 0.66 2 1 C2 4.96 2 8.92 2 13 C1.01 12.67 0.02 12.34 -1 12 C-0.67 8.04 -0.34 4.08 0 0 Z " fill="#ECEDF0" transform="translate(32,197)"/>
<path d="M0 0 C0.66 0 1.32 0 2 0 C2 0.66 2 1.32 2 2 C2.9590625 2.1546875 2.9590625 2.1546875 3.9375 2.3125 C4.618125 2.539375 5.29875 2.76625 6 3 C6.33 3.99 6.66 4.98 7 6 C4.36 5.67 1.72 5.34 -1 5 C-0.67 3.35 -0.34 1.7 0 0 Z " fill="#F2F2F2" transform="translate(162,98)"/>
<path d="M0 0 C2 3 2 3 2 7 C2.99 7.33 3.98 7.66 5 8 C4.01 8.66 3.02 9.32 2 10 C1.01 9.34 0.02 8.68 -1 8 C-1.25 4.4375 -1.25 4.4375 -1 1 C-0.67 0.67 -0.34 0.34 0 0 Z " fill="#E9EBE9" transform="translate(156,76)"/>
<path d="M0 0 C-1.12451727 2.9719385 -2.22293791 5.33440687 -4 8 C-4.99 8 -5.98 8 -7 8 C-4.18918919 0 -4.18918919 0 0 0 Z " fill="#E6E6EA" transform="translate(90,91)"/>
<path d="M0 0 C3.375 -0.1875 3.375 -0.1875 7 0 C7.66 0.99 8.32 1.98 9 3 C6.69 3 4.38 3 2 3 C1.67 3.99 1.34 4.98 1 6 C0.67 4.02 0.34 2.04 0 0 Z " fill="#EBEBEB" transform="translate(156,64)"/>
<path d="M0 0 C0.33 0.66 0.66 1.32 1 2 C1.99 2.33 2.98 2.66 4 3 C4.625 5.375 4.625 5.375 5 8 C4.34 8.66 3.68 9.32 3 10 C0.96564469 6.27034861 0 4.33094958 0 0 Z " fill="#EDEDEE" transform="translate(193,174)"/>
<path d="M0 0 C0.66 0.33 1.32 0.66 2 1 C1.67 3.97 1.34 6.94 1 10 C0.34 9.67 -0.32 9.34 -1 9 C-1 7.35 -1 5.7 -1 4 C-1.66 4 -2.32 4 -3 4 C-3 3.01 -3 2.02 -3 1 C-2.01 0.67 -1.02 0.34 0 0 Z " fill="#E3E7E8" transform="translate(57,161)"/>
<path d="M0 0 C-1.44077046 3.36179774 -3.24750021 5.59156268 -6 8 C-6.66 8 -7.32 8 -8 8 C-7.65978036 4.82461668 -6.97533396 3.97723135 -4.5625 1.75 C-2 0 -2 0 0 0 Z " fill="#DEDFE0" transform="translate(236,59)"/>
<path d="M0 0 C0.99 0 1.98 0 3 0 C3.144375 0.78375 3.28875 1.5675 3.4375 2.375 C3.87798925 4.96421018 3.87798925 4.96421018 5 7 C2.03 6.505 2.03 6.505 -1 6 C-0.67 4.02 -0.34 2.04 0 0 Z " fill="#EEEFF0" transform="translate(191,165)"/>
<path d="M0 0 C0.66 1.32 1.32 2.64 2 4 C-0.97 6.475 -0.97 6.475 -4 9 C-4.66 8.34 -5.32 7.68 -6 7 C-5.34 7 -4.68 7 -4 7 C-3.71125 6.401875 -3.4225 5.80375 -3.125 5.1875 C-2 3 -2 3 0 0 Z " fill="#EEF0F0" transform="translate(274,101)"/>
<path d="M0 0 C0.66 0 1.32 0 2 0 C3.35439668 2.70879335 3.06501451 5.00933268 3 8 C2.01 8.33 1.02 8.66 0 9 C0 6.03 0 3.06 0 0 Z " fill="#EDEDED" transform="translate(194,104)"/>
<path d="M0 0 C4.28806873 0.47645208 6.26647487 1.65902484 9 5 C9 5.66 9 6.32 9 7 C5.18315774 5.44499019 2.80804268 2.96404505 0 0 Z " fill="#E2E2E2" transform="translate(262,64)"/>
<path d="M0 0 C3.9618914 1.76084062 8.01467775 4.0293555 10 8 C7.8125 7.9375 7.8125 7.9375 5 7 C3.06842043 4.8282781 1.51798313 2.47398953 0 0 Z " fill="#F2F2F3" transform="translate(181,252)"/>
<path d="M0 0 C0.99 0.33 1.98 0.66 3 1 C3.33 2.98 3.66 4.96 4 7 C3.34 7 2.68 7 2 7 C1.67 7.99 1.34 8.98 1 10 C0.67 6.7 0.34 3.4 0 0 Z " fill="#F3F3F3" transform="translate(71,160)"/>
<path d="M0 0 C0.598125 0.350625 1.19625 0.70125 1.8125 1.0625 C0.8225 1.3925 -0.1675 1.7225 -1.1875 2.0625 C-2.41719878 5.57440809 -2.41719878 5.57440809 -3.1875 9.0625 C-3.5175 9.0625 -3.8475 9.0625 -4.1875 9.0625 C-4.5175 6.0925 -4.8475 3.1225 -5.1875 0.0625 C-2.1875 -0.9375 -2.1875 -0.9375 0 0 Z " fill="#EDEDED" transform="translate(78.1875,147.9375)"/>
<path d="M0 0 C0.33 0 0.66 0 1 0 C1.125 6.625 1.125 6.625 0 10 C-0.66 10 -1.32 10 -2 10 C-2.25 3.375 -2.25 3.375 0 0 Z " fill="#EAEBEC" transform="translate(77,124)"/>
<path d="M0 0 C1.0326802 2.78823655 1.04509293 3.8677274 0.0625 6.75 C-0.288125 7.4925 -0.63875 8.235 -1 9 C-1.66 9 -2.32 9 -3 9 C-2.4140625 2.84765625 -2.4140625 2.84765625 -2 1 C-1.34 0.67 -0.68 0.34 0 0 Z " fill="#F0F1F3" transform="translate(74,119)"/>
<path d="M0 0 C0.99 0.33 1.98 0.66 3 1 C0.68462045 4.72114571 -1.28579473 7.61229661 -5 10 C-4.67 8.35 -4.34 6.7 -4 5 C-3.34 5 -2.68 5 -2 5 C-1.34 3.35 -0.68 1.7 0 0 Z " fill="#EDEFEE" transform="translate(24,101)"/>
<path d="M0 0 C0.66 0.66 1.32 1.32 2 2 C1.66302652 8.17784711 1.66302652 8.17784711 -0.5625 10.9375 C-1.036875 11.288125 -1.51125 11.63875 -2 12 C-1.33333333 8 -0.66666667 4 0 0 Z " fill="#D6D7D7" transform="translate(288,172)"/>
<path d="M0 0 C0.66 0.33 1.32 0.66 2 1 C0.125 8.75 0.125 8.75 -1 11 C-1.66 11 -2.32 11 -3 11 C-2.649375 10.21625 -2.29875 9.4325 -1.9375 8.625 C-1.628125 7.75875 -1.31875 6.8925 -1 6 C-1.33 5.34 -1.66 4.68 -2 4 C-1.0625 1.875 -1.0625 1.875 0 0 Z " fill="#EEEEF0" transform="translate(197,152)"/>
<path d="M0 0 C2.375 0.25 2.375 0.25 5 1 C6.3125 3.0625 6.3125 3.0625 7 5 C6.34 5.66 5.68 6.32 5 7 C0 1.125 0 1.125 0 0 Z " fill="#F3F3F1" transform="translate(90,147)"/>
<path d="M0 0 C2.31 0.33 4.62 0.66 7 1 C7 1.33 7 1.66 7 2 C5.35 2 3.7 2 2 2 C1.67 3.32 1.34 4.64 1 6 C0.01 6 -0.98 6 -2 6 C-1.34 4.02 -0.68 2.04 0 0 Z " fill="#F3F3F2" transform="translate(214,146)"/>
<path d="M0 0 C-1.13499394 3.29148243 -1.99283376 3.9959869 -5.125 5.75 C-6.548125 6.36875 -6.548125 6.36875 -8 7 C-8 6.01 -8 5.02 -8 4 C-2.74285714 0 -2.74285714 0 0 0 Z " fill="#E4E4E4" transform="translate(31,90)"/>
<path d="M0 0 C2.56864728 1.28432364 2.946539 2.36634751 4 5 C4 6.32 4 7.64 4 9 C3.34 9 2.68 9 2 9 C0.4375 6.1875 0.4375 6.1875 -1 3 C-0.67 2.01 -0.34 1.02 0 0 Z " fill="#EEEFF1" transform="translate(114,163)"/>
<path d="M0 0 C0.99 0.33 1.98 0.66 3 1 C0.64722731 3.72426311 -1.62496331 4.8141763 -5 6 C-3.63016497 2.83884224 -3.0109362 2.0072908 0 0 Z " fill="#F0F0F0" transform="translate(68,91)"/>
<path d="M0 0 C1.11375 0.3403125 1.11375 0.3403125 2.25 0.6875 C2.25 1.6775 2.25 2.6675 2.25 3.6875 C-0.72 3.3575 -3.69 3.0275 -6.75 2.6875 C-4.29511132 0.41445492 -3.41240272 -0.38777304 0 0 Z " fill="#F1F1F4" transform="translate(182.75,3.3125)"/>
<path d="M0 0 C1.98 0.99 3.96 1.98 6 3 C6 3.66 6 4.32 6 5 C6.66 5.33 7.32 5.66 8 6 C7.01 6.33 6.02 6.66 5 7 C2.7363436 5.59554165 0.9791315 3.8032087 -1 2 C-0.67 1.34 -0.34 0.68 0 0 Z " fill="#FBFCFD" transform="translate(105,209)"/>
<path d="M0 0 C2.92879371 0.62759865 5.36095629 1.58622659 8 3 C8 3.66 8 4.32 8 5 C4.85262818 4.30058404 1.97411124 3.23921302 -1 2 C-0.67 1.34 -0.34 0.68 0 0 Z " fill="#EBEBEC" transform="translate(262,57)"/>
<path d="M0 0 C3 1 3 1 3 1 Z M-2 1 C-1.34 1 -0.68 1 0 1 C0.33 2.98 0.66 4.96 1 7 C-0.65 7 -2.3 7 -4 7 C-3.34 5.02 -2.68 3.04 -2 1 Z " fill="#EEEEEF" transform="translate(113,32)"/>
<path d="M0 0 C-6.375 4.25 -6.375 4.25 -11 4 C-7.04396675 0.96704118 -5.03239385 -0.13243142 0 0 Z " fill="#F1F4F2" transform="translate(175,11)"/>
<path d="M0 0 C3.79588866 0.54226981 5.47211993 2.20127563 8 5 C7.01 5.33 6.02 5.66 5 6 C3.35 4.02 1.7 2.04 0 0 Z " fill="#FBFCFD" transform="translate(229,220)"/>
<path d="M0 0 C4.875 2.625 4.875 2.625 6 6 C3.69 5.34 1.38 4.68 -1 4 C-0.67 2.68 -0.34 1.36 0 0 Z " fill="#F1F1F2" transform="translate(129,180)"/>
<path d="M0 0 C1.98 0 3.96 0 6 0 C6.66 1.32 7.32 2.64 8 4 C5.125 3.6875 5.125 3.6875 2 3 C1.34 2.01 0.68 1.02 0 0 Z " fill="#F1F1F3" transform="translate(20,138)"/>
<path d="M0 0 C0.99 0.33 1.98 0.66 3 1 C3 1.66 3 2.32 3 3 C3.99 3 4.98 3 6 3 C5.67 4.32 5.34 5.64 5 7 C2.56070254 5.07423885 0.19909405 3.19909405 -2 1 C-1.34 0.67 -0.68 0.34 0 0 Z " fill="#E5E6E8" transform="translate(105,24)"/>
<path d="M0 0 C1.65 1.65 3.3 3.3 5 5 C3.02 5.99 3.02 5.99 1 7 C-0.0625 4.625 -0.0625 4.625 -1 2 C-0.67 1.34 -0.34 0.68 0 0 Z " fill="#F2F3F4" transform="translate(200,17)"/>
<path d="M0 0 C3.875 1.75 3.875 1.75 5 4 C3.35 4.66 1.7 5.32 0 6 C-0.38218767 4.34385343 -0.71395102 2.67542976 -1 1 C-0.67 0.67 -0.34 0.34 0 0 Z " fill="#ECEEF1" transform="translate(97,224)"/>
<path d="M0 0 C3.465 1.485 3.465 1.485 7 3 C6.67 3.66 6.34 4.32 6 5 C3.625 4.6875 3.625 4.6875 1 4 C0.34 3.01 -0.32 2.02 -1 1 C-0.67 0.67 -0.34 0.34 0 0 Z " fill="#F3F4F6" transform="translate(93,195)"/>
<path d="M0 0 C0 3 0 3 -2 6 C-3.32 5.34 -4.64 4.68 -6 4 C-4.02 2.68 -2.04 1.36 0 0 Z " fill="#F1F2F3" transform="translate(259,188)"/>
<path d="M0 0 C2.89932357 2.39509338 3.50168276 4.31245243 4 8 C3.01 7.67 2.02 7.34 1 7 C0.67 4.69 0.34 2.38 0 0 Z " fill="#F0F2F1" transform="translate(110,154)"/>
<path d="M0 0 C0.99 0.33 1.98 0.66 3 1 C2.6875 2.9375 2.6875 2.9375 2 5 C1.01 5.33 0.02 5.66 -1 6 C-1 2 -1 2 0 0 Z " fill="#E9EAEA" transform="translate(55,92)"/>
<path d="M0 0 C0.66 1.32 1.32 2.64 2 4 C1.34 4.66 0.68 5.32 0 6 C-0.99 5.67 -1.98 5.34 -3 5 C-1.125 1.125 -1.125 1.125 0 0 Z " fill="#EBEFF1" transform="translate(227,65)"/>
<path d="M0 0 C4.875 3.625 4.875 3.625 6 7 C4.125 6.6875 4.125 6.6875 2 6 C0 3 0 3 0 0 Z " fill="#E3E4E6" transform="translate(200,10)"/>
<path d="M0 0 C0.33 0.99 0.66 1.98 1 3 C-0.28965176 4.37562854 -1.62689293 5.70766393 -3 7 C-3.66 7 -4.32 7 -5 7 C-3.70700306 4.11562221 -2.34058637 2.12780579 0 0 Z " fill="#EEEFF0" transform="translate(288,188)"/>
<path d="M0 0 C0.33 0 0.66 0 1 0 C1.33 1.98 1.66 3.96 2 6 C0.35 6.33 -1.3 6.66 -3 7 C-2.38722388 4.03824877 -1.74627478 2.61941217 0 0 Z " fill="#EEEFF1" transform="translate(285,182)"/>
<path d="M0 0 C0.66 0 1.32 0 2 0 C2 1.98 2 3.96 2 6 C0.68 5.34 -0.64 4.68 -2 4 C-1.34 2.68 -0.68 1.36 0 0 Z " fill="#E4E6E3" transform="translate(49,176)"/>
<path d="M0 0 C0 0.66 0 1.32 0 2 C-0.66 2 -1.32 2 -2 2 C-2.33 3.32 -2.66 4.64 -3 6 C-3.99 5.67 -4.98 5.34 -6 5 C-6 4.34 -6 3.68 -6 3 C-5.34 3 -4.68 3 -4 3 C-4 2.34 -4 1.68 -4 1 C-2 0 -2 0 0 0 Z " fill="#F3F4F4" transform="translate(113,173)"/>
<path d="M0 0 C0.66 0 1.32 0 2 0 C2.33 1.98 2.66 3.96 3 6 C2.01 5.67 1.02 5.34 0 5 C-0.75 3 -0.75 3 -1 1 C-0.67 0.67 -0.34 0.34 0 0 Z " fill="#F2F3F3" transform="translate(194,126)"/>
<path d="M0 0 C-1.04874998 2.62187494 -1.64931313 3.79371361 -4.125 5.25 C-4.74375 5.4975 -5.3625 5.745 -6 6 C-6 5.01 -6 4.02 -6 3 C-2.66666667 0 -2.66666667 0 0 0 Z " fill="#E2E4E4" transform="translate(270,109)"/>
<path d="M0 0 C0.99 0.33 1.98 0.66 3 1 C2.67 2.65 2.34 4.3 2 6 C1.34 6 0.68 6 0 6 C-1.125 2.25 -1.125 2.25 0 0 Z " fill="#ECECF0" transform="translate(142,91)"/>
<path d="" fill="#000000" transform="translate(0,0)"/>
<path d="" fill="#000000" transform="translate(0,0)"/>
<path d="" fill="#000000" transform="translate(0,0)"/>
<path d="" fill="#000000" transform="translate(0,0)"/>
<path d="" fill="#000000" transform="translate(0,0)"/>
<path d="" fill="#000000" transform="translate(0,0)"/>
<path d="" fill="#000000" transform="translate(0,0)"/>
<path d="" fill="#000000" transform="translate(0,0)"/>
<path d="" fill="#000000" transform="translate(0,0)"/>
<path d="" fill="#000000" transform="translate(0,0)"/>
<path d="" fill="#000000" transform="translate(0,0)"/>
<path d="" fill="#000000" transform="translate(0,0)"/>
<path d="" fill="#000000" transform="translate(0,0)"/>
<path d="" fill="#000000" transform="translate(0,0)"/>
<path d="" fill="#000000" transform="translate(0,0)"/>
<path d="" fill="#000000" transform="translate(0,0)"/>
<path d="" fill="#000000" transform="translate(0,0)"/>
<path d="" fill="#000000" transform="translate(0,0)"/>
<path d="" fill="#000000" transform="translate(0,0)"/>
<path d="" fill="#000000" transform="translate(0,0)"/>
<path d="" fill="#000000" transform="translate(0,0)"/>
<path d="" fill="#000000" transform="translate(0,0)"/>
<path d="" fill="#000000" transform="translate(0,0)"/>
<path d="" fill="#000000" transform="translate(0,0)"/>
<path d="" fill="#000000" transform="translate(0,0)"/>
<path d="" fill="#000000" transform="translate(0,0)"/>
<path d="" fill="#000000" transform="translate(0,0)"/>
<path d="" fill="#000000" transform="translate(0,0)"/>
<path d="" fill="#000000" transform="translate(0,0)"/>
<path d="" fill="#000000" transform="translate(0,0)"/>
<path d="" fill="#000000" transform="translate(0,0)"/>
<path d="" fill="#000000" transform="translate(0,0)"/>
<path d="" fill="#000000" transform="translate(0,0)"/>
<path d="" fill="#000000" transform="translate(0,0)"/>
<path d="" fill="#000000" transform="translate(0,0)"/>
<path d="" fill="#000000" transform="translate(0,0)"/>
<path d="" fill="#000000" transform="translate(0,0)"/>
<path d="" fill="#000000" transform="translate(0,0)"/>
<path d="" fill="#000000" transform="translate(0,0)"/>
<path d="" fill="#000000" transform="translate(0,0)"/>
<path d="" fill="#000000" transform="translate(0,0)"/>
<path d="" fill="#000000" transform="translate(0,0)"/>
<path d="" fill="#000000" transform="translate(0,0)"/>
<path d="" fill="#000000" transform="translate(0,0)"/>
<path d="" fill="#000000" transform="translate(0,0)"/>
</svg>
